<svg class="main-svg" xmlns="http://www.w3.org/2000/svg" xmlns:xlink="http://www.w3.org/1999/xlink" width="1024" height="768" style="" viewBox="0 0 1024 768"><rect x="0" y="0" width="1024" height="768" style="fill: rgb(40, 40, 40); fill-opacity: 1;"/><defs id="defs-c992b7"><g class="clips"><clipPath id="clipc992b7xyplot" class="plotclip"><rect width="844" height="568"/></clipPath><clipPath class="axesclip" id="clipc992b7x"><rect x="100" y="0" width="844" height="768"/></clipPath><clipPath class="axesclip" id="clipc992b7y"><rect x="0" y="100" width="1024" height="568"/></clipPath><clipPath class="axesclip" id="clipc992b7xy"><rect x="100" y="100" width="844" height="568"/></clipPath></g><g class="gradients"/></defs><g class="bglayer"><rect class="bg" x="100" y="100" width="844" height="568" style="fill: rgb(0, 0, 0); fill-opacity: 0; stroke-width: 0;"/></g><g class="layer-below"><g class="imagelayer"/><g class="shapelayer"/></g><g class="cartesianlayer"><g class="subplot xy"><g class="layer-subplot"><g class="shapelayer"/><g class="imagelayer"/></g><g class="gridlayer"><g class="x"><path class="xgrid crisp" transform="translate(148.45,0)" d="M0,100v568" style="stroke: rgb(120, 120, 120); stroke-opacity: 1; stroke-width: 1px;"/><path class="xgrid crisp" transform="translate(300.91999999999996,0)" d="M0,100v568" style="stroke: rgb(120, 120, 120); stroke-opacity: 1; stroke-width: 1px;"/><path class="xgrid crisp" transform="translate(453.39,0)" d="M0,100v568" style="stroke: rgb(120, 120, 120); stroke-opacity: 1; stroke-width: 1px;"/><path class="xgrid crisp" transform="translate(605.86,0)" d="M0,100v568" style="stroke: rgb(120, 120, 120); stroke-opacity: 1; stroke-width: 1px;"/><path class="xgrid crisp" transform="translate(758.33,0)" d="M0,100v568" style="stroke: rgb(120, 120, 120); stroke-opacity: 1; stroke-width: 1px;"/><path class="xgrid crisp" transform="translate(910.8,0)" d="M0,100v568" style="stroke: rgb(120, 120, 120); stroke-opacity: 1; stroke-width: 1px;"/></g><g class="y"><path class="ygrid crisp" transform="translate(0,633.43)" d="M100,0h844" style="stroke: rgb(120, 120, 120); stroke-opacity: 1; stroke-width: 1px;"/><path class="ygrid crisp" transform="translate(0,508.73)" d="M100,0h844" style="stroke: rgb(120, 120, 120); stroke-opacity: 1; stroke-width: 1px;"/><path class="ygrid crisp" transform="translate(0,384.04)" d="M100,0h844" style="stroke: rgb(120, 120, 120); stroke-opacity: 1; stroke-width: 1px;"/><path class="ygrid crisp" transform="translate(0,259.34000000000003)" d="M100,0h844" style="stroke: rgb(120, 120, 120); stroke-opacity: 1; stroke-width: 1px;"/><path class="ygrid crisp" transform="translate(0,134.65)" d="M100,0h844" style="stroke: rgb(120, 120, 120); stroke-opacity: 1; stroke-width: 1px;"/></g></g><g class="zerolinelayer"/><path class="xlines-below"/><path class="ylines-below"/><g class="overlines-below"/><g class="xaxislayer-below"/><g class="yaxislayer-below"/><g class="overaxes-below"/><g class="plot" transform="translate(100,100)" clip-path="url('#clipc992b7xyplot')"><g class="scatterlayer mlayer"><g class="trace scatter trace6d4117" style="stroke-miterlimit: 2; opacity: 1;"><g class="fills"/><g class="errorbars"/><g class="lines"><path class="js-line" d="M48.45,284.04L78.94,186.92L94.19,143.22L109.44,105.14L124.68,74.19L139.93,51.6L155.18,38.28L170.43,34.76L185.67,41.17L200.92,57.27L216.17,82.41L231.41,115.59L246.66,155.48L261.91,200.5L277.15,248.84L307.65,347.77L322.89,394.4L338.14,436.63L353.39,472.78L368.64,501.4L383.88,521.36L399.13,531.85L414.38,532.47L429.62,523.18L444.87,504.36L460.12,476.76L475.36,441.47L490.61,399.9L505.86,353.72L551.6,206.34L566.85,160.81L582.09,120.19L597.34,86.11L612.59,59.91L627.83,42.65L643.08,35.01L658.33,37.3L673.57,49.43L688.82,70.91L704.07,100.89L719.32,138.17L734.56,181.26L749.81,228.45L795.55,375.43" style="vector-effect: non-scaling-stroke; fill: none; stroke: rgb(0, 146, 204); stroke-opacity: 1; stroke-width: 3px; opacity: 1;"/></g><g class="points"><path class="point" transform="translate(48.45,284.04)" d="M5,0A5,5 0 1,1 0,-5A5,5 0 0,1 5,0Z" style="opacity: 1; stroke-width: 0px; fill: rgb(0, 146, 204); fill-opacity: 1;"/><path class="point" transform="translate(63.7,234.49)" d="M5,0A5,5 0 1,1 0,-5A5,5 0 0,1 5,0Z" style="opacity: 1; stroke-width: 0px; fill: rgb(0, 146, 204); fill-opacity: 1;"/><path class="point" transform="translate(78.94,186.92)" d="M5,0A5,5 0 1,1 0,-5A5,5 0 0,1 5,0Z" style="opacity: 1; stroke-width: 0px; fill: rgb(0, 146, 204); fill-opacity: 1;"/><path class="point" transform="translate(94.19,143.22)" d="M5,0A5,5 0 1,1 0,-5A5,5 0 0,1 5,0Z" style="opacity: 1; stroke-width: 0px; fill: rgb(0, 146, 204); fill-opacity: 1;"/><path class="point" transform="translate(109.44,105.14)" d="M5,0A5,5 0 1,1 0,-5A5,5 0 0,1 5,0Z" style="opacity: 1; stroke-width: 0px; fill: rgb(0, 146, 204); fill-opacity: 1;"/><path class="point" transform="translate(124.68,74.19)" d="M5,0A5,5 0 1,1 0,-5A5,5 0 0,1 5,0Z" style="opacity: 1; stroke-width: 0px; fill: rgb(0, 146, 204); fill-opacity: 1;"/><path class="point" transform="translate(139.93,51.6)" d="M5,0A5,5 0 1,1 0,-5A5,5 0 0,1 5,0Z" style="opacity: 1; stroke-width: 0px; fill: rgb(0, 146, 204); fill-opacity: 1;"/><path class="point" transform="translate(155.18,38.28)" d="M5,0A5,5 0 1,1 0,-5A5,5 0 0,1 5,0Z" style="opacity: 1; stroke-width: 0px; fill: rgb(0, 146, 204); fill-opacity: 1;"/><path class="point" transform="translate(170.43,34.76)" d="M5,0A5,5 0 1,1 0,-5A5,5 0 0,1 5,0Z" style="opacity: 1; stroke-width: 0px; fill: rgb(0, 146, 204); fill-opacity: 1;"/><path class="point" transform="translate(185.67,41.17)" d="M5,0A5,5 0 1,1 0,-5A5,5 0 0,1 5,0Z" style="opacity: 1; stroke-width: 0px; fill: rgb(0, 146, 204); fill-opacity: 1;"/><path class="point" transform="translate(200.92,57.27)" d="M5,0A5,5 0 1,1 0,-5A5,5 0 0,1 5,0Z" style="opacity: 1; stroke-width: 0px; fill: rgb(0, 146, 204); fill-opacity: 1;"/><path class="point" transform="translate(216.17,82.41)" d="M5,0A5,5 0 1,1 0,-5A5,5 0 0,1 5,0Z" style="opacity: 1; stroke-width: 0px; fill: rgb(0, 146, 204); fill-opacity: 1;"/><path class="point" transform="translate(231.41,115.59)" d="M5,0A5,5 0 1,1 0,-5A5,5 0 0,1 5,0Z" style="opacity: 1; stroke-width: 0px; fill: rgb(0, 146, 204); fill-opacity: 1;"/><path class="point" transform="translate(246.66,155.48)" d="M5,0A5,5 0 1,1 0,-5A5,5 0 0,1 5,0Z" style="opacity: 1; stroke-width: 0px; fill: rgb(0, 146, 204); fill-opacity: 1;"/><path class="point" transform="translate(261.91,200.5)" d="M5,0A5,5 0 1,1 0,-5A5,5 0 0,1 5,0Z" style="opacity: 1; stroke-width: 0px; fill: rgb(0, 146, 204); fill-opacity: 1;"/><path class="point" transform="translate(277.15,248.84)" d="M5,0A5,5 0 1,1 0,-5A5,5 0 0,1 5,0Z" style="opacity: 1; stroke-width: 0px; fill: rgb(0, 146, 204); fill-opacity: 1;"/><path class="point" transform="translate(292.4,298.6)" d="M5,0A5,5 0 1,1 0,-5A5,5 0 0,1 5,0Z" style="opacity: 1; stroke-width: 0px; fill: rgb(0, 146, 204); fill-opacity: 1;"/><path class="point" transform="translate(307.65,347.77)" d="M5,0A5,5 0 1,1 0,-5A5,5 0 0,1 5,0Z" style="opacity: 1; stroke-width: 0px; fill: rgb(0, 146, 204); fill-opacity: 1;"/><path class="point" transform="translate(322.89,394.4)" d="M5,0A5,5 0 1,1 0,-5A5,5 0 0,1 5,0Z" style="opacity: 1; stroke-width: 0px; fill: rgb(0, 146, 204); fill-opacity: 1;"/><path class="point" transform="translate(338.14,436.63)" d="M5,0A5,5 0 1,1 0,-5A5,5 0 0,1 5,0Z" style="opacity: 1; stroke-width: 0px; fill: rgb(0, 146, 204); fill-opacity: 1;"/><path class="point" transform="translate(353.39,472.78)" d="M5,0A5,5 0 1,1 0,-5A5,5 0 0,1 5,0Z" style="opacity: 1; stroke-width: 0px; fill: rgb(0, 146, 204); fill-opacity: 1;"/><path class="point" transform="translate(368.64,501.4)" d="M5,0A5,5 0 1,1 0,-5A5,5 0 0,1 5,0Z" style="opacity: 1; stroke-width: 0px; fill: rgb(0, 146, 204); fill-opacity: 1;"/><path class="point" transform="translate(383.88,521.36)" d="M5,0A5,5 0 1,1 0,-5A5,5 0 0,1 5,0Z" style="opacity: 1; stroke-width: 0px; fill: rgb(0, 146, 204); fill-opacity: 1;"/><path class="point" transform="translate(399.13,531.85)" d="M5,0A5,5 0 1,1 0,-5A5,5 0 0,1 5,0Z" style="opacity: 1; stroke-width: 0px; fill: rgb(0, 146, 204); fill-opacity: 1;"/><path class="point" transform="translate(414.38,532.47)" d="M5,0A5,5 0 1,1 0,-5A5,5 0 0,1 5,0Z" style="opacity: 1; stroke-width: 0px; fill: rgb(0, 146, 204); fill-opacity: 1;"/><path class="point" transform="translate(429.62,523.18)" d="M5,0A5,5 0 1,1 0,-5A5,5 0 0,1 5,0Z" style="opacity: 1; stroke-width: 0px; fill: rgb(0, 146, 204); fill-opacity: 1;"/><path class="point" transform="translate(444.87,504.36)" d="M5,0A5,5 0 1,1 0,-5A5,5 0 0,1 5,0Z" style="opacity: 1; stroke-width: 0px; fill: rgb(0, 146, 204); fill-opacity: 1;"/><path class="point" transform="translate(460.12,476.76)" d="M5,0A5,5 0 1,1 0,-5A5,5 0 0,1 5,0Z" style="opacity: 1; stroke-width: 0px; fill: rgb(0, 146, 204); fill-opacity: 1;"/><path class="point" transform="translate(475.36,441.47)" d="M5,0A5,5 0 1,1 0,-5A5,5 0 0,1 5,0Z" style="opacity: 1; stroke-width: 0px; fill: rgb(0, 146, 204); fill-opacity: 1;"/><path class="point" transform="translate(490.61,399.9)" d="M5,0A5,5 0 1,1 0,-5A5,5 0 0,1 5,0Z" style="opacity: 1; stroke-width: 0px; fill: rgb(0, 146, 204); fill-opacity: 1;"/><path class="point" transform="translate(505.86,353.72)" d="M5,0A5,5 0 1,1 0,-5A5,5 0 0,1 5,0Z" style="opacity: 1; stroke-width: 0px; fill: rgb(0, 146, 204); fill-opacity: 1;"/><path class="point" transform="translate(521.11,304.76)" d="M5,0A5,5 0 1,1 0,-5A5,5 0 0,1 5,0Z" style="opacity: 1; stroke-width: 0px; fill: rgb(0, 146, 204); fill-opacity: 1;"/><path class="point" transform="translate(536.35,254.97)" d="M5,0A5,5 0 1,1 0,-5A5,5 0 0,1 5,0Z" style="opacity: 1; stroke-width: 0px; fill: rgb(0, 146, 204); fill-opacity: 1;"/><path class="point" transform="translate(551.6,206.34)" d="M5,0A5,5 0 1,1 0,-5A5,5 0 0,1 5,0Z" style="opacity: 1; stroke-width: 0px; fill: rgb(0, 146, 204); fill-opacity: 1;"/><path class="point" transform="translate(566.85,160.81)" d="M5,0A5,5 0 1,1 0,-5A5,5 0 0,1 5,0Z" style="opacity: 1; stroke-width: 0px; fill: rgb(0, 146, 204); fill-opacity: 1;"/><path class="point" transform="translate(582.09,120.19)" d="M5,0A5,5 0 1,1 0,-5A5,5 0 0,1 5,0Z" style="opacity: 1; stroke-width: 0px; fill: rgb(0, 146, 204); fill-opacity: 1;"/><path class="point" transform="translate(597.34,86.11)" d="M5,0A5,5 0 1,1 0,-5A5,5 0 0,1 5,0Z" style="opacity: 1; stroke-width: 0px; fill: rgb(0, 146, 204); fill-opacity: 1;"/><path class="point" transform="translate(612.59,59.91)" d="M5,0A5,5 0 1,1 0,-5A5,5 0 0,1 5,0Z" style="opacity: 1; stroke-width: 0px; fill: rgb(0, 146, 204); fill-opacity: 1;"/><path class="point" transform="translate(627.83,42.65)" d="M5,0A5,5 0 1,1 0,-5A5,5 0 0,1 5,0Z" style="opacity: 1; stroke-width: 0px; fill: rgb(0, 146, 204); fill-opacity: 1;"/><path class="point" transform="translate(643.08,35.01)" d="M5,0A5,5 0 1,1 0,-5A5,5 0 0,1 5,0Z" style="opacity: 1; stroke-width: 0px; fill: rgb(0, 146, 204); fill-opacity: 1;"/><path class="point" transform="translate(658.33,37.3)" d="M5,0A5,5 0 1,1 0,-5A5,5 0 0,1 5,0Z" style="opacity: 1; stroke-width: 0px; fill: rgb(0, 146, 204); fill-opacity: 1;"/><path class="point" transform="translate(673.57,49.43)" d="M5,0A5,5 0 1,1 0,-5A5,5 0 0,1 5,0Z" style="opacity: 1; stroke-width: 0px; fill: rgb(0, 146, 204); fill-opacity: 1;"/><path class="point" transform="translate(688.82,70.91)" d="M5,0A5,5 0 1,1 0,-5A5,5 0 0,1 5,0Z" style="opacity: 1; stroke-width: 0px; fill: rgb(0, 146, 204); fill-opacity: 1;"/><path class="point" transform="translate(704.07,100.89)" d="M5,0A5,5 0 1,1 0,-5A5,5 0 0,1 5,0Z" style="opacity: 1; stroke-width: 0px; fill: rgb(0, 146, 204); fill-opacity: 1;"/><path class="point" transform="translate(719.32,138.17)" d="M5,0A5,5 0 1,1 0,-5A5,5 0 0,1 5,0Z" style="opacity: 1; stroke-width: 0px; fill: rgb(0, 146, 204); fill-opacity: 1;"/><path class="point" transform="translate(734.56,181.26)" d="M5,0A5,5 0 1,1 0,-5A5,5 0 0,1 5,0Z" style="opacity: 1; stroke-width: 0px; fill: rgb(0, 146, 204); fill-opacity: 1;"/><path class="point" transform="translate(749.81,228.45)" d="M5,0A5,5 0 1,1 0,-5A5,5 0 0,1 5,0Z" style="opacity: 1; stroke-width: 0px; fill: rgb(0, 146, 204); fill-opacity: 1;"/><path class="point" transform="translate(765.06,277.86)" d="M5,0A5,5 0 1,1 0,-5A5,5 0 0,1 5,0Z" style="opacity: 1; stroke-width: 0px; fill: rgb(0, 146, 204); fill-opacity: 1;"/><path class="point" transform="translate(780.3,327.51)" d="M5,0A5,5 0 1,1 0,-5A5,5 0 0,1 5,0Z" style="opacity: 1; stroke-width: 0px; fill: rgb(0, 146, 204); fill-opacity: 1;"/><path class="point" transform="translate(795.55,375.43)" d="M5,0A5,5 0 1,1 0,-5A5,5 0 0,1 5,0Z" style="opacity: 1; stroke-width: 0px; fill: rgb(0, 146, 204); fill-opacity: 1;"/></g><g class="text"/></g><g class="trace scatter trace481fba" style="stroke-miterlimit: 2; opacity: 1;"><g class="fills"/><g class="errorbars"/><g class="lines"><path class="js-line" d="M48.45,34.65L63.7,39.62L78.94,54.34L94.19,78.21L109.44,110.29L124.68,149.29L139.93,193.67L170.43,291.32L185.67,340.7L200.92,387.82L216.17,430.8L231.41,467.94L246.66,497.74L261.91,519.02L277.15,530.93L292.4,533L307.65,525.15L322.89,507.68L338.14,481.3L353.39,447.05L368.64,406.3L383.88,360.68L399.13,312.01L429.62,213.3L444.87,167.2L460.12,125.75L475.36,90.62L490.61,63.2L505.86,44.58L521.11,35.51L536.35,36.35L551.6,47.06L566.85,67.22L582.09,96.02L597.34,132.32L612.59,174.67L627.83,221.38L673.57,368.62L688.82,413.54L704.07,453.3L719.32,486.32L734.56,511.26L749.81,527.15L765.06,533.35L780.3,529.61L795.55,516.08" style="vector-effect: non-scaling-stroke; fill: none; stroke: rgb(255, 51, 51); stroke-opacity: 1; stroke-width: 3px; opacity: 1;"/></g><g class="points"><path class="point" transform="translate(48.45,34.65)" d="M6.5,0L0,6.5L-6.5,0L0,-6.5ZM0,0.5L0.5,0L0,-0.5L-0.5,0Z" style="opacity: 1; stroke-width: 0px; fill: rgb(255, 51, 51); fill-opacity: 1;"/><path class="point" transform="translate(63.7,39.62)" d="M6.5,0L0,6.5L-6.5,0L0,-6.5ZM0,0.5L0.5,0L0,-0.5L-0.5,0Z" style="opacity: 1; stroke-width: 0px; fill: rgb(255, 51, 51); fill-opacity: 1;"/><path class="point" transform="translate(78.94,54.34)" d="M6.5,0L0,6.5L-6.5,0L0,-6.5ZM0,0.5L0.5,0L0,-0.5L-0.5,0Z" style="opacity: 1; stroke-width: 0px; fill: rgb(255, 51, 51); fill-opacity: 1;"/><path class="point" transform="translate(94.19,78.21)" d="M6.5,0L0,6.5L-6.5,0L0,-6.5ZM0,0.5L0.5,0L0,-0.5L-0.5,0Z" style="opacity: 1; stroke-width: 0px; fill: rgb(255, 51, 51); fill-opacity: 1;"/><path class="point" transform="translate(109.44,110.29)" d="M6.5,0L0,6.5L-6.5,0L0,-6.5ZM0,0.5L0.5,0L0,-0.5L-0.5,0Z" style="opacity: 1; stroke-width: 0px; fill: rgb(255, 51, 51); fill-opacity: 1;"/><path class="point" transform="translate(124.68,149.29)" d="M6.5,0L0,6.5L-6.5,0L0,-6.5ZM0,0.5L0.5,0L0,-0.5L-0.5,0Z" style="opacity: 1; stroke-width: 0px; fill: rgb(255, 51, 51); fill-opacity: 1;"/><path class="point" transform="translate(139.93,193.67)" d="M6.5,0L0,6.5L-6.5,0L0,-6.5ZM0,0.5L0.5,0L0,-0.5L-0.5,0Z" style="opacity: 1; stroke-width: 0px; fill: rgb(255, 51, 51); fill-opacity: 1;"/><path class="point" transform="translate(155.18,241.65)" d="M6.5,0L0,6.5L-6.5,0L0,-6.5ZM0,0.5L0.5,0L0,-0.5L-0.5,0Z" style="opacity: 1; stroke-width: 0px; fill: rgb(255, 51, 51); fill-opacity: 1;"/><path class="point" transform="translate(170.43,291.32)" d="M6.5,0L0,6.5L-6.5,0L0,-6.5ZM0,0.5L0.5,0L0,-0.5L-0.5,0Z" style="opacity: 1; stroke-width: 0px; fill: rgb(255, 51, 51); fill-opacity: 1;"/><path class="point" transform="translate(185.67,340.7)" d="M6.5,0L0,6.5L-6.5,0L0,-6.5ZM0,0.5L0.5,0L0,-0.5L-0.5,0Z" style="opacity: 1; stroke-width: 0px; fill: rgb(255, 51, 51); fill-opacity: 1;"/><path class="point" transform="translate(200.92,387.82)" d="M6.5,0L0,6.5L-6.5,0L0,-6.5ZM0,0.5L0.5,0L0,-0.5L-0.5,0Z" style="opacity: 1; stroke-width: 0px; fill: rgb(255, 51, 51); fill-opacity: 1;"/><path class="point" transform="translate(216.17,430.8)" d="M6.5,0L0,6.5L-6.5,0L0,-6.5ZM0,0.5L0.5,0L0,-0.5L-0.5,0Z" style="opacity: 1; stroke-width: 0px; fill: rgb(255, 51, 51); fill-opacity: 1;"/><path class="point" transform="translate(231.41,467.94)" d="M6.5,0L0,6.5L-6.5,0L0,-6.5ZM0,0.5L0.5,0L0,-0.5L-0.5,0Z" style="opacity: 1; stroke-width: 0px; fill: rgb(255, 51, 51); fill-opacity: 1;"/><path class="point" transform="translate(246.66,497.74)" d="M6.5,0L0,6.5L-6.5,0L0,-6.5ZM0,0.5L0.5,0L0,-0.5L-0.5,0Z" style="opacity: 1; stroke-width: 0px; fill: rgb(255, 51, 51); fill-opacity: 1;"/><path class="point" transform="translate(261.91,519.02)" d="M6.5,0L0,6.5L-6.5,0L0,-6.5ZM0,0.5L0.5,0L0,-0.5L-0.5,0Z" style="opacity: 1; stroke-width: 0px; fill: rgb(255, 51, 51); fill-opacity: 1;"/><path class="point" transform="translate(277.15,530.93)" d="M6.5,0L0,6.5L-6.5,0L0,-6.5ZM0,0.5L0.5,0L0,-0.5L-0.5,0Z" style="opacity: 1; stroke-width: 0px; fill: rgb(255, 51, 51); fill-opacity: 1;"/><path class="point" transform="translate(292.4,533)" d="M6.5,0L0,6.5L-6.5,0L0,-6.5ZM0,0.5L0.5,0L0,-0.5L-0.5,0Z" style="opacity: 1; stroke-width: 0px; fill: rgb(255, 51, 51); fill-opacity: 1;"/><path class="point" transform="translate(307.65,525.15)" d="M6.5,0L0,6.5L-6.5,0L0,-6.5ZM0,0.5L0.5,0L0,-0.5L-0.5,0Z" style="opacity: 1; stroke-width: 0px; fill: rgb(255, 51, 51); fill-opacity: 1;"/><path class="point" transform="translate(322.89,507.68)" d="M6.5,0L0,6.5L-6.5,0L0,-6.5ZM0,0.5L0.5,0L0,-0.5L-0.5,0Z" style="opacity: 1; stroke-width: 0px; fill: rgb(255, 51, 51); fill-opacity: 1;"/><path class="point" transform="translate(338.14,481.3)" d="M6.5,0L0,6.5L-6.5,0L0,-6.5ZM0,0.5L0.5,0L0,-0.5L-0.5,0Z" style="opacity: 1; stroke-width: 0px; fill: rgb(255, 51, 51); fill-opacity: 1;"/><path class="point" transform="translate(353.39,447.05)" d="M6.5,0L0,6.5L-6.5,0L0,-6.5ZM0,0.5L0.5,0L0,-0.5L-0.5,0Z" style="opacity: 1; stroke-width: 0px; fill: rgb(255, 51, 51); fill-opacity: 1;"/><path class="point" transform="translate(368.64,406.3)" d="M6.5,0L0,6.5L-6.5,0L0,-6.5ZM0,0.5L0.5,0L0,-0.5L-0.5,0Z" style="opacity: 1; stroke-width: 0px; fill: rgb(255, 51, 51); fill-opacity: 1;"/><path class="point" transform="translate(383.88,360.68)" d="M6.5,0L0,6.5L-6.5,0L0,-6.5ZM0,0.5L0.5,0L0,-0.5L-0.5,0Z" style="opacity: 1; stroke-width: 0px; fill: rgb(255, 51, 51); fill-opacity: 1;"/><path class="point" transform="translate(399.13,312.01)" d="M6.5,0L0,6.5L-6.5,0L0,-6.5ZM0,0.5L0.5,0L0,-0.5L-0.5,0Z" style="opacity: 1; stroke-width: 0px; fill: rgb(255, 51, 51); fill-opacity: 1;"/><path class="point" transform="translate(414.38,262.22)" d="M6.5,0L0,6.5L-6.5,0L0,-6.5ZM0,0.5L0.5,0L0,-0.5L-0.5,0Z" style="opacity: 1; stroke-width: 0px; fill: rgb(255, 51, 51); fill-opacity: 1;"/><path class="point" transform="translate(429.62,213.3)" d="M6.5,0L0,6.5L-6.5,0L0,-6.5ZM0,0.5L0.5,0L0,-0.5L-0.5,0Z" style="opacity: 1; stroke-width: 0px; fill: rgb(255, 51, 51); fill-opacity: 1;"/><path class="point" transform="translate(444.87,167.2)" d="M6.5,0L0,6.5L-6.5,0L0,-6.5ZM0,0.5L0.5,0L0,-0.5L-0.5,0Z" style="opacity: 1; stroke-width: 0px; fill: rgb(255, 51, 51); fill-opacity: 1;"/><path class="point" transform="translate(460.12,125.75)" d="M6.5,0L0,6.5L-6.5,0L0,-6.5ZM0,0.5L0.5,0L0,-0.5L-0.5,0Z" style="opacity: 1; stroke-width: 0px; fill: rgb(255, 51, 51); fill-opacity: 1;"/><path class="point" transform="translate(475.36,90.62)" d="M6.5,0L0,6.5L-6.5,0L0,-6.5ZM0,0.5L0.5,0L0,-0.5L-0.5,0Z" style="opacity: 1; stroke-width: 0px; fill: rgb(255, 51, 51); fill-opacity: 1;"/><path class="point" transform="translate(490.61,63.2)" d="M6.5,0L0,6.5L-6.5,0L0,-6.5ZM0,0.5L0.5,0L0,-0.5L-0.5,0Z" style="opacity: 1; stroke-width: 0px; fill: rgb(255, 51, 51); fill-opacity: 1;"/><path class="point" transform="translate(505.86,44.58)" d="M6.5,0L0,6.5L-6.5,0L0,-6.5ZM0,0.5L0.5,0L0,-0.5L-0.5,0Z" style="opacity: 1; stroke-width: 0px; fill: rgb(255, 51, 51); fill-opacity: 1;"/><path class="point" transform="translate(521.11,35.51)" d="M6.5,0L0,6.5L-6.5,0L0,-6.5ZM0,0.5L0.5,0L0,-0.5L-0.5,0Z" style="opacity: 1; stroke-width: 0px; fill: rgb(255, 51, 51); fill-opacity: 1;"/><path class="point" transform="translate(536.35,36.35)" d="M6.5,0L0,6.5L-6.5,0L0,-6.5ZM0,0.5L0.5,0L0,-0.5L-0.5,0Z" style="opacity: 1; stroke-width: 0px; fill: rgb(255, 51, 51); fill-opacity: 1;"/><path class="point" transform="translate(551.6,47.06)" d="M6.5,0L0,6.5L-6.5,0L0,-6.5ZM0,0.5L0.5,0L0,-0.5L-0.5,0Z" style="opacity: 1; stroke-width: 0px; fill: rgb(255, 51, 51); fill-opacity: 1;"/><path class="point" transform="translate(566.85,67.22)" d="M6.5,0L0,6.5L-6.5,0L0,-6.5ZM0,0.5L0.5,0L0,-0.5L-0.5,0Z" style="opacity: 1; stroke-width: 0px; fill: rgb(255, 51, 51); fill-opacity: 1;"/><path class="point" transform="translate(582.09,96.02)" d="M6.5,0L0,6.5L-6.5,0L0,-6.5ZM0,0.5L0.5,0L0,-0.5L-0.5,0Z" style="opacity: 1; stroke-width: 0px; fill: rgb(255, 51, 51); fill-opacity: 1;"/><path class="point" transform="translate(597.34,132.32)" d="M6.5,0L0,6.5L-6.5,0L0,-6.5ZM0,0.5L0.5,0L0,-0.5L-0.5,0Z" style="opacity: 1; stroke-width: 0px; fill: rgb(255, 51, 51); fill-opacity: 1;"/><path class="point" transform="translate(612.59,174.67)" d="M6.5,0L0,6.5L-6.5,0L0,-6.5ZM0,0.5L0.5,0L0,-0.5L-0.5,0Z" style="opacity: 1; stroke-width: 0px; fill: rgb(255, 51, 51); fill-opacity: 1;"/><path class="point" transform="translate(627.83,221.38)" d="M6.5,0L0,6.5L-6.5,0L0,-6.5ZM0,0.5L0.5,0L0,-0.5L-0.5,0Z" style="opacity: 1; stroke-width: 0px; fill: rgb(255, 51, 51); fill-opacity: 1;"/><path class="point" transform="translate(643.08,270.58)" d="M6.5,0L0,6.5L-6.5,0L0,-6.5ZM0,0.5L0.5,0L0,-0.5L-0.5,0Z" style="opacity: 1; stroke-width: 0px; fill: rgb(255, 51, 51); fill-opacity: 1;"/><path class="point" transform="translate(658.33,320.32)" d="M6.5,0L0,6.5L-6.5,0L0,-6.5ZM0,0.5L0.5,0L0,-0.5L-0.5,0Z" style="opacity: 1; stroke-width: 0px; fill: rgb(255, 51, 51); fill-opacity: 1;"/><path class="point" transform="translate(673.57,368.62)" d="M6.5,0L0,6.5L-6.5,0L0,-6.5ZM0,0.5L0.5,0L0,-0.5L-0.5,0Z" style="opacity: 1; stroke-width: 0px; fill: rgb(255, 51, 51); fill-opacity: 1;"/><path class="point" transform="translate(688.82,413.54)" d="M6.5,0L0,6.5L-6.5,0L0,-6.5ZM0,0.5L0.5,0L0,-0.5L-0.5,0Z" style="opacity: 1; stroke-width: 0px; fill: rgb(255, 51, 51); fill-opacity: 1;"/><path class="point" transform="translate(704.07,453.3)" d="M6.5,0L0,6.5L-6.5,0L0,-6.5ZM0,0.5L0.5,0L0,-0.5L-0.5,0Z" style="opacity: 1; stroke-width: 0px; fill: rgb(255, 51, 51); fill-opacity: 1;"/><path class="point" transform="translate(719.32,486.32)" d="M6.5,0L0,6.5L-6.5,0L0,-6.5ZM0,0.5L0.5,0L0,-0.5L-0.5,0Z" style="opacity: 1; stroke-width: 0px; fill: rgb(255, 51, 51); fill-opacity: 1;"/><path class="point" transform="translate(734.56,511.26)" d="M6.5,0L0,6.5L-6.5,0L0,-6.5ZM0,0.5L0.5,0L0,-0.5L-0.5,0Z" style="opacity: 1; stroke-width: 0px; fill: rgb(255, 51, 51); fill-opacity: 1;"/><path class="point" transform="translate(749.81,527.15)" d="M6.5,0L0,6.5L-6.5,0L0,-6.5ZM0,0.5L0.5,0L0,-0.5L-0.5,0Z" style="opacity: 1; stroke-width: 0px; fill: rgb(255, 51, 51); fill-opacity: 1;"/><path class="point" transform="translate(765.06,533.35)" d="M6.5,0L0,6.5L-6.5,0L0,-6.5ZM0,0.5L0.5,0L0,-0.5L-0.5,0Z" style="opacity: 1; stroke-width: 0px; fill: rgb(255, 51, 51); fill-opacity: 1;"/><path class="point" transform="translate(780.3,529.61)" d="M6.5,0L0,6.5L-6.5,0L0,-6.5ZM0,0.5L0.5,0L0,-0.5L-0.5,0Z" style="opacity: 1; stroke-width: 0px; fill: rgb(255, 51, 51); fill-opacity: 1;"/><path class="point" transform="translate(795.55,516.08)" d="M6.5,0L0,6.5L-6.5,0L0,-6.5ZM0,0.5L0.5,0L0,-0.5L-0.5,0Z" style="opacity: 1; stroke-width: 0px; fill: rgb(255, 51, 51); fill-opacity: 1;"/></g><g class="text"/></g></g></g><g class="overplot"/><path class="xlines-above crisp" d="M100,668.5h844" style="fill: none; stroke-width: 3px; stroke: rgb(240, 240, 240); stroke-opacity: 1;"/><path class="ylines-above crisp" d="M100.5,100v568" style="fill: none; stroke-width: 3px; stroke: rgb(240, 240, 240); stroke-opacity: 1;"/><g class="overlines-above"/><g class="xaxislayer-above"><path class="xtick ticks crisp" d="M0,670v6" transform="translate(148.45,0)" style="stroke: rgb(240, 240, 240); stroke-opacity: 1; stroke-width: 3px;"/><path class="xtick ticks crisp" d="M0,670v6" transform="translate(300.91999999999996,0)" style="stroke: rgb(240, 240, 240); stroke-opacity: 1; stroke-width: 3px;"/><path class="xtick ticks crisp" d="M0,670v6" transform="translate(453.39,0)" style="stroke: rgb(240, 240, 240); stroke-opacity: 1; stroke-width: 3px;"/><path class="xtick ticks crisp" d="M0,670v6" transform="translate(605.86,0)" style="stroke: rgb(240, 240, 240); stroke-opacity: 1; stroke-width: 3px;"/><path class="xtick ticks crisp" d="M0,670v6" transform="translate(758.33,0)" style="stroke: rgb(240, 240, 240); stroke-opacity: 1; stroke-width: 3px;"/><path class="xtick ticks crisp" d="M0,670v6" transform="translate(910.8,0)" style="stroke: rgb(240, 240, 240); stroke-opacity: 1; stroke-width: 3px;"/><g class="xtick"><text text-anchor="middle" x="0" y="712" transform="translate(148.45,0)" style="font-family: 'Open Sans', verdana, arial, sans-serif; font-size: 30px; fill: rgb(240, 240, 240); fill-opacity: 1; white-space: pre;">0</text></g><g class="xtick"><text text-anchor="middle" x="0" y="712" transform="translate(300.91999999999996,0)" style="font-family: 'Open Sans', verdana, arial, sans-serif; font-size: 30px; fill: rgb(240, 240, 240); fill-opacity: 1; white-space: pre;">2</text></g><g class="xtick"><text text-anchor="middle" x="0" y="712" transform="translate(453.39,0)" style="font-family: 'Open Sans', verdana, arial, sans-serif; font-size: 30px; fill: rgb(240, 240, 240); fill-opacity: 1; white-space: pre;">4</text></g><g class="xtick"><text text-anchor="middle" x="0" y="712" transform="translate(605.86,0)" style="font-family: 'Open Sans', verdana, arial, sans-serif; font-size: 30px; fill: rgb(240, 240, 240); fill-opacity: 1; white-space: pre;">6</text></g><g class="xtick"><text text-anchor="middle" x="0" y="712" transform="translate(758.33,0)" style="font-family: 'Open Sans', verdana, arial, sans-serif; font-size: 30px; fill: rgb(240, 240, 240); fill-opacity: 1; white-space: pre;">8</text></g><g class="xtick"><text text-anchor="middle" x="0" y="712" transform="translate(910.8,0)" style="font-family: 'Open Sans', verdana, arial, sans-serif; font-size: 30px; fill: rgb(240, 240, 240); fill-opacity: 1; white-space: pre;">10</text></g></g><g class="yaxislayer-above"><path class="ytick ticks crisp" d="M99,0h-6" transform="translate(0,633.43)" style="stroke: rgb(240, 240, 240); stroke-opacity: 1; stroke-width: 3px;"/><path class="ytick ticks crisp" d="M99,0h-6" transform="translate(0,508.73)" style="stroke: rgb(240, 240, 240); stroke-opacity: 1; stroke-width: 3px;"/><path class="ytick ticks crisp" d="M99,0h-6" transform="translate(0,384.04)" style="stroke: rgb(240, 240, 240); stroke-opacity: 1; stroke-width: 3px;"/><path class="ytick ticks crisp" d="M99,0h-6" transform="translate(0,259.34000000000003)" style="stroke: rgb(240, 240, 240); stroke-opacity: 1; stroke-width: 3px;"/><path class="ytick ticks crisp" d="M99,0h-6" transform="translate(0,134.65)" style="stroke: rgb(240, 240, 240); stroke-opacity: 1; stroke-width: 3px;"/><g class="ytick"><text text-anchor="end" x="87" y="10.5" transform="translate(0,633.43)" style="font-family: 'Open Sans', verdana, arial, sans-serif; font-size: 30px; fill: rgb(240, 240, 240); fill-opacity: 1; white-space: pre;">−1</text></g><g class="ytick"><text text-anchor="end" x="87" y="10.5" transform="translate(0,508.73)" style="font-family: 'Open Sans', verdana, arial, sans-serif; font-size: 30px; fill: rgb(240, 240, 240); fill-opacity: 1; white-space: pre;">−0.5</text></g><g class="ytick"><text text-anchor="end" x="87" y="10.5" transform="translate(0,384.04)" style="font-family: 'Open Sans', verdana, arial, sans-serif; font-size: 30px; fill: rgb(240, 240, 240); fill-opacity: 1; white-space: pre;">0</text></g><g class="ytick"><text text-anchor="end" x="87" y="10.5" transform="translate(0,259.34000000000003)" style="font-family: 'Open Sans', verdana, arial, sans-serif; font-size: 30px; fill: rgb(240, 240, 240); fill-opacity: 1; white-space: pre;">0.5</text></g><g class="ytick"><text text-anchor="end" x="87" y="10.5" transform="translate(0,134.65)" style="font-family: 'Open Sans', verdana, arial, sans-serif; font-size: 30px; fill: rgb(240, 240, 240); fill-opacity: 1; white-space: pre;">1</text></g></g><g class="overaxes-above"/></g></g><g class="polarlayer"/><g class="ternarylayer"/><g class="geolayer"/><g class="funnelarealayer"/><g class="pielayer"/><g class="treemaplayer"/><g class="sunburstlayer"/><g class="glimages"/><defs id="topdefs-c992b7"><g class="clips"/><clipPath id="legendc992b7"><rect width="175" height="107" x="3" y="3"/></clipPath></defs><g class="layer-above"><g class="imagelayer"/><g class="shapelayer"><path data-index="0" fill-rule="evenodd" d="M100,100L944,100" style="opacity: 1; stroke: rgb(240, 240, 240); stroke-opacity: 1; fill: rgb(0, 0, 0); fill-opacity: 0; stroke-width: 3px;"/><path data-index="1" fill-rule="evenodd" d="M944,668L944,100" style="opacity: 1; stroke: rgb(240, 240, 240); stroke-opacity: 1; fill: rgb(0, 0, 0); fill-opacity: 0; stroke-width: 3px;"/></g></g><g class="infolayer"><g class="legend" pointer-events="all" transform="translate(108.44,547.4456)"><rect class="bg" shape-rendering="crispEdges" style="stroke: rgb(240, 240, 240); stroke-opacity: 1; fill: rgb(40, 40, 40); fill-opacity: 1; stroke-width: 3px;" width="178" height="110" x="1.5" y="1.5"/><g class="scrollbox" transform="" clip-path="url('#legendc992b7')"><g class="groups"><g class="traces" transform="translate(3,32.25)" style="opacity: 1;"><text class="legendtext" text-anchor="start" x="62" y="13.65" style="font-family: serif; font-size: 35px; fill: rgb(240, 240, 240); fill-opacity: 1; white-space: pre;">sin(x)  </text><g class="layers" style="opacity: 1;"><g class="legendfill"/><g class="legendlines"><path class="js-line" d="M5,0h52" style="fill: none; stroke: rgb(0, 146, 204); stroke-opacity: 1; stroke-width: 3px;"/></g><g class="legendsymbols"><g class="legendpoints"><path class="scatterpts" transform="translate(31,0)" d="M5,0A5,5 0 1,1 0,-5A5,5 0 0,1 5,0Z" style="opacity: 1; stroke-width: 0px; fill: rgb(0, 146, 204); fill-opacity: 1;"/></g></g></g><rect class="legendtoggle" x="0" y="-24.25" width="170" height="48.5" style="fill: rgb(0, 0, 0); fill-opacity: 0;"/></g><g class="traces" transform="translate(3,80.75)" style="opacity: 1;"><text class="legendtext" text-anchor="start" x="62" y="13.65" style="font-family: serif; font-size: 35px; fill: rgb(240, 240, 240); fill-opacity: 1; white-space: pre;">cos(x)  </text><g class="layers" style="opacity: 1;"><g class="legendfill"/><g class="legendlines"><path class="js-line" d="M5,0h52" style="fill: none; stroke: rgb(255, 51, 51); stroke-opacity: 1; stroke-width: 3px;"/></g><g class="legendsymbols"><g class="legendpoints"><path class="scatterpts" transform="translate(31,0)" d="M6.5,0L0,6.5L-6.5,0L0,-6.5ZM0,0.5L0.5,0L0,-0.5L-0.5,0Z" style="opacity: 1; stroke-width: 0px; fill: rgb(255, 51, 51); fill-opacity: 1;"/></g></g></g><rect class="legendtoggle" x="0" y="-24.25" width="170" height="48.5" style="fill: rgb(0, 0, 0); fill-opacity: 0;"/></g></g></g><rect class="scrollbar" rx="20" ry="3" width="0" height="0" style="fill: rgb(128, 139, 164); fill-opacity: 1;" x="0" y="0"/></g><g class="g-gtitle"><text class="gtitle" x="512" y="50" text-anchor="middle" dy="0em" style="font-family: serif; font-size: 35px; fill: rgb(240, 240, 240); opacity: 1; font-weight: normal; white-space: pre;">Trigonometric functions</text></g><g class="g-xtitle" transform="translate(0,-25)"><text class="xtitle" x="522" y="785" text-anchor="middle" style="font-family: serif; font-size: 35px; fill: rgb(240, 240, 240); opacity: 1; font-weight: normal; white-space: pre;">x, radians</text></g><g class="g-ytitle" transform="translate(13,0)"><text class="ytitle" transform="rotate(-90,18,384)" x="18" y="384" text-anchor="middle" style="font-family: serif; font-size: 35px; fill: rgb(240, 240, 240); opacity: 1; font-weight: normal; white-space: pre;">f(x)</text></g></g></svg>