<svg class="main-svg" xmlns="http://www.w3.org/2000/svg" xmlns:xlink="http://www.w3.org/1999/xlink" width="1024" height="768" style="" viewBox="0 0 1024 768"><rect x="0" y="0" width="1024" height="768" style="fill: rgb(40, 40, 40); fill-opacity: 1;"/><defs id="defs-b14290"><g class="clips"><clipPath id="clipb14290xyplot" class="plotclip"><rect width="864" height="588"/></clipPath><clipPath class="axesclip" id="clipb14290x"><rect x="80" y="0" width="864" height="768"/></clipPath><clipPath class="axesclip" id="clipb14290y"><rect x="0" y="100" width="1024" height="588"/></clipPath><clipPath class="axesclip" id="clipb14290xy"><rect x="80" y="100" width="864" height="588"/></clipPath></g><g class="gradients"/></defs><g class="bglayer"><rect class="bg" x="80" y="100" width="864" height="588" style="fill: rgb(0, 0, 0); fill-opacity: 0; stroke-width: 0;"/></g><g class="layer-below"><g class="imagelayer"/><g class="shapelayer"/></g><g class="cartesianlayer"><g class="subplot xy"><g class="layer-subplot"><g class="shapelayer"/><g class="imagelayer"/></g><g class="gridlayer"><g class="x"><path class="xgrid crisp" transform="translate(129.45,0)" d="M0,100v588" style="stroke: rgb(120, 120, 120); stroke-opacity: 1; stroke-width: 1px;"/><path class="xgrid crisp" transform="translate(285.59000000000003,0)" d="M0,100v588" style="stroke: rgb(120, 120, 120); stroke-opacity: 1; stroke-width: 1px;"/><path class="xgrid crisp" transform="translate(441.74,0)" d="M0,100v588" style="stroke: rgb(120, 120, 120); stroke-opacity: 1; stroke-width: 1px;"/><path class="xgrid crisp" transform="translate(597.88,0)" d="M0,100v588" style="stroke: rgb(120, 120, 120); stroke-opacity: 1; stroke-width: 1px;"/><path class="xgrid crisp" transform="translate(754.02,0)" d="M0,100v588" style="stroke: rgb(120, 120, 120); stroke-opacity: 1; stroke-width: 1px;"/><path class="xgrid crisp" transform="translate(910.16,0)" d="M0,100v588" style="stroke: rgb(120, 120, 120); stroke-opacity: 1; stroke-width: 1px;"/></g><g class="y"><path class="ygrid crisp" transform="translate(0,652.43)" d="M80,0h864" style="stroke: rgb(120, 120, 120); stroke-opacity: 1; stroke-width: 1px;"/><path class="ygrid crisp" transform="translate(0,523.23)" d="M80,0h864" style="stroke: rgb(120, 120, 120); stroke-opacity: 1; stroke-width: 1px;"/><path class="ygrid crisp" transform="translate(0,394.04)" d="M80,0h864" style="stroke: rgb(120, 120, 120); stroke-opacity: 1; stroke-width: 1px;"/><path class="ygrid crisp" transform="translate(0,264.84000000000003)" d="M80,0h864" style="stroke: rgb(120, 120, 120); stroke-opacity: 1; stroke-width: 1px;"/><path class="ygrid crisp" transform="translate(0,135.65)" d="M80,0h864" style="stroke: rgb(120, 120, 120); stroke-opacity: 1; stroke-width: 1px;"/></g></g><g class="zerolinelayer"/><path class="xlines-below"/><path class="ylines-below"/><g class="overlines-below"/><g class="xaxislayer-below"/><g class="yaxislayer-below"/><g class="overaxes-below"/><g class="plot" transform="translate(80,100)" clip-path="url('#clipb14290xyplot')"><g class="scatterlayer mlayer"><g class="trace scatter tracecb61e9" style="stroke-miterlimit: 2; opacity: 1;"><g class="fills"/><g class="errorbars"/><g class="lines"><path class="js-line" d="M49.45,294.04L80.68,193.42L96.29,148.14L111.91,108.68L127.52,76.61L143.14,53.21L158.75,39.41L174.36,35.76L189.98,42.41L205.59,59.09L221.21,85.13L236.82,119.51L252.44,160.84L268.05,207.48L283.66,257.58L314.89,360.07L330.51,408.38L346.12,452.14L361.74,489.59L377.35,519.25L392.96,539.92L408.58,550.8L424.19,551.44L439.81,541.82L455.42,522.32L471.04,493.71L486.65,457.15L502.26,414.09L517.88,366.24L564.72,213.54L580.34,166.37L595.95,124.28L611.56,88.96L627.18,61.82L642.79,43.94L658.41,36.03L674.02,38.4L689.64,50.96L705.25,73.22L720.86,104.28L736.48,142.9L752.09,187.55L767.71,236.45L814.55,388.73" style="vector-effect: non-scaling-stroke; fill: none; stroke: rgb(0, 146, 204); stroke-opacity: 1; stroke-width: 3px; opacity: 1;"/></g><g class="points"><path class="point" transform="translate(49.45,294.04)" d="M5,0A5,5 0 1,1 0,-5A5,5 0 0,1 5,0Z" style="opacity: 1; stroke-width: 0px; fill: rgb(0, 146, 204); fill-opacity: 1;"/><path class="point" transform="translate(65.06,242.71)" d="M5,0A5,5 0 1,1 0,-5A5,5 0 0,1 5,0Z" style="opacity: 1; stroke-width: 0px; fill: rgb(0, 146, 204); fill-opacity: 1;"/><path class="point" transform="translate(80.68,193.42)" d="M5,0A5,5 0 1,1 0,-5A5,5 0 0,1 5,0Z" style="opacity: 1; stroke-width: 0px; fill: rgb(0, 146, 204); fill-opacity: 1;"/><path class="point" transform="translate(96.29,148.14)" d="M5,0A5,5 0 1,1 0,-5A5,5 0 0,1 5,0Z" style="opacity: 1; stroke-width: 0px; fill: rgb(0, 146, 204); fill-opacity: 1;"/><path class="point" transform="translate(111.91,108.68)" d="M5,0A5,5 0 1,1 0,-5A5,5 0 0,1 5,0Z" style="opacity: 1; stroke-width: 0px; fill: rgb(0, 146, 204); fill-opacity: 1;"/><path class="point" transform="translate(127.52,76.61)" d="M5,0A5,5 0 1,1 0,-5A5,5 0 0,1 5,0Z" style="opacity: 1; stroke-width: 0px; fill: rgb(0, 146, 204); fill-opacity: 1;"/><path class="point" transform="translate(143.14,53.21)" d="M5,0A5,5 0 1,1 0,-5A5,5 0 0,1 5,0Z" style="opacity: 1; stroke-width: 0px; fill: rgb(0, 146, 204); fill-opacity: 1;"/><path class="point" transform="translate(158.75,39.41)" d="M5,0A5,5 0 1,1 0,-5A5,5 0 0,1 5,0Z" style="opacity: 1; stroke-width: 0px; fill: rgb(0, 146, 204); fill-opacity: 1;"/><path class="point" transform="translate(174.36,35.76)" d="M5,0A5,5 0 1,1 0,-5A5,5 0 0,1 5,0Z" style="opacity: 1; stroke-width: 0px; fill: rgb(0, 146, 204); fill-opacity: 1;"/><path class="point" transform="translate(189.98,42.41)" d="M5,0A5,5 0 1,1 0,-5A5,5 0 0,1 5,0Z" style="opacity: 1; stroke-width: 0px; fill: rgb(0, 146, 204); fill-opacity: 1;"/><path class="point" transform="translate(205.59,59.09)" d="M5,0A5,5 0 1,1 0,-5A5,5 0 0,1 5,0Z" style="opacity: 1; stroke-width: 0px; fill: rgb(0, 146, 204); fill-opacity: 1;"/><path class="point" transform="translate(221.21,85.13)" d="M5,0A5,5 0 1,1 0,-5A5,5 0 0,1 5,0Z" style="opacity: 1; stroke-width: 0px; fill: rgb(0, 146, 204); fill-opacity: 1;"/><path class="point" transform="translate(236.82,119.51)" d="M5,0A5,5 0 1,1 0,-5A5,5 0 0,1 5,0Z" style="opacity: 1; stroke-width: 0px; fill: rgb(0, 146, 204); fill-opacity: 1;"/><path class="point" transform="translate(252.44,160.84)" d="M5,0A5,5 0 1,1 0,-5A5,5 0 0,1 5,0Z" style="opacity: 1; stroke-width: 0px; fill: rgb(0, 146, 204); fill-opacity: 1;"/><path class="point" transform="translate(268.05,207.48)" d="M5,0A5,5 0 1,1 0,-5A5,5 0 0,1 5,0Z" style="opacity: 1; stroke-width: 0px; fill: rgb(0, 146, 204); fill-opacity: 1;"/><path class="point" transform="translate(283.66,257.58)" d="M5,0A5,5 0 1,1 0,-5A5,5 0 0,1 5,0Z" style="opacity: 1; stroke-width: 0px; fill: rgb(0, 146, 204); fill-opacity: 1;"/><path class="point" transform="translate(299.28,309.12)" d="M5,0A5,5 0 1,1 0,-5A5,5 0 0,1 5,0Z" style="opacity: 1; stroke-width: 0px; fill: rgb(0, 146, 204); fill-opacity: 1;"/><path class="point" transform="translate(314.89,360.07)" d="M5,0A5,5 0 1,1 0,-5A5,5 0 0,1 5,0Z" style="opacity: 1; stroke-width: 0px; fill: rgb(0, 146, 204); fill-opacity: 1;"/><path class="point" transform="translate(330.51,408.38)" d="M5,0A5,5 0 1,1 0,-5A5,5 0 0,1 5,0Z" style="opacity: 1; stroke-width: 0px; fill: rgb(0, 146, 204); fill-opacity: 1;"/><path class="point" transform="translate(346.12,452.14)" d="M5,0A5,5 0 1,1 0,-5A5,5 0 0,1 5,0Z" style="opacity: 1; stroke-width: 0px; fill: rgb(0, 146, 204); fill-opacity: 1;"/><path class="point" transform="translate(361.74,489.59)" d="M5,0A5,5 0 1,1 0,-5A5,5 0 0,1 5,0Z" style="opacity: 1; stroke-width: 0px; fill: rgb(0, 146, 204); fill-opacity: 1;"/><path class="point" transform="translate(377.35,519.25)" d="M5,0A5,5 0 1,1 0,-5A5,5 0 0,1 5,0Z" style="opacity: 1; stroke-width: 0px; fill: rgb(0, 146, 204); fill-opacity: 1;"/><path class="point" transform="translate(392.96,539.92)" d="M5,0A5,5 0 1,1 0,-5A5,5 0 0,1 5,0Z" style="opacity: 1; stroke-width: 0px; fill: rgb(0, 146, 204); fill-opacity: 1;"/><path class="point" transform="translate(408.58,550.8)" d="M5,0A5,5 0 1,1 0,-5A5,5 0 0,1 5,0Z" style="opacity: 1; stroke-width: 0px; fill: rgb(0, 146, 204); fill-opacity: 1;"/><path class="point" transform="translate(424.19,551.44)" d="M5,0A5,5 0 1,1 0,-5A5,5 0 0,1 5,0Z" style="opacity: 1; stroke-width: 0px; fill: rgb(0, 146, 204); fill-opacity: 1;"/><path class="point" transform="translate(439.81,541.82)" d="M5,0A5,5 0 1,1 0,-5A5,5 0 0,1 5,0Z" style="opacity: 1; stroke-width: 0px; fill: rgb(0, 146, 204); fill-opacity: 1;"/><path class="point" transform="translate(455.42,522.32)" d="M5,0A5,5 0 1,1 0,-5A5,5 0 0,1 5,0Z" style="opacity: 1; stroke-width: 0px; fill: rgb(0, 146, 204); fill-opacity: 1;"/><path class="point" transform="translate(471.04,493.71)" d="M5,0A5,5 0 1,1 0,-5A5,5 0 0,1 5,0Z" style="opacity: 1; stroke-width: 0px; fill: rgb(0, 146, 204); fill-opacity: 1;"/><path class="point" transform="translate(486.65,457.15)" d="M5,0A5,5 0 1,1 0,-5A5,5 0 0,1 5,0Z" style="opacity: 1; stroke-width: 0px; fill: rgb(0, 146, 204); fill-opacity: 1;"/><path class="point" transform="translate(502.26,414.09)" d="M5,0A5,5 0 1,1 0,-5A5,5 0 0,1 5,0Z" style="opacity: 1; stroke-width: 0px; fill: rgb(0, 146, 204); fill-opacity: 1;"/><path class="point" transform="translate(517.88,366.24)" d="M5,0A5,5 0 1,1 0,-5A5,5 0 0,1 5,0Z" style="opacity: 1; stroke-width: 0px; fill: rgb(0, 146, 204); fill-opacity: 1;"/><path class="point" transform="translate(533.49,315.51)" d="M5,0A5,5 0 1,1 0,-5A5,5 0 0,1 5,0Z" style="opacity: 1; stroke-width: 0px; fill: rgb(0, 146, 204); fill-opacity: 1;"/><path class="point" transform="translate(549.11,263.92)" d="M5,0A5,5 0 1,1 0,-5A5,5 0 0,1 5,0Z" style="opacity: 1; stroke-width: 0px; fill: rgb(0, 146, 204); fill-opacity: 1;"/><path class="point" transform="translate(564.72,213.54)" d="M5,0A5,5 0 1,1 0,-5A5,5 0 0,1 5,0Z" style="opacity: 1; stroke-width: 0px; fill: rgb(0, 146, 204); fill-opacity: 1;"/><path class="point" transform="translate(580.34,166.37)" d="M5,0A5,5 0 1,1 0,-5A5,5 0 0,1 5,0Z" style="opacity: 1; stroke-width: 0px; fill: rgb(0, 146, 204); fill-opacity: 1;"/><path class="point" transform="translate(595.95,124.28)" d="M5,0A5,5 0 1,1 0,-5A5,5 0 0,1 5,0Z" style="opacity: 1; stroke-width: 0px; fill: rgb(0, 146, 204); fill-opacity: 1;"/><path class="point" transform="translate(611.56,88.96)" d="M5,0A5,5 0 1,1 0,-5A5,5 0 0,1 5,0Z" style="opacity: 1; stroke-width: 0px; fill: rgb(0, 146, 204); fill-opacity: 1;"/><path class="point" transform="translate(627.18,61.82)" d="M5,0A5,5 0 1,1 0,-5A5,5 0 0,1 5,0Z" style="opacity: 1; stroke-width: 0px; fill: rgb(0, 146, 204); fill-opacity: 1;"/><path class="point" transform="translate(642.79,43.94)" d="M5,0A5,5 0 1,1 0,-5A5,5 0 0,1 5,0Z" style="opacity: 1; stroke-width: 0px; fill: rgb(0, 146, 204); fill-opacity: 1;"/><path class="point" transform="translate(658.41,36.03)" d="M5,0A5,5 0 1,1 0,-5A5,5 0 0,1 5,0Z" style="opacity: 1; stroke-width: 0px; fill: rgb(0, 146, 204); fill-opacity: 1;"/><path class="point" transform="translate(674.02,38.4)" d="M5,0A5,5 0 1,1 0,-5A5,5 0 0,1 5,0Z" style="opacity: 1; stroke-width: 0px; fill: rgb(0, 146, 204); fill-opacity: 1;"/><path class="point" transform="translate(689.64,50.96)" d="M5,0A5,5 0 1,1 0,-5A5,5 0 0,1 5,0Z" style="opacity: 1; stroke-width: 0px; fill: rgb(0, 146, 204); fill-opacity: 1;"/><path class="point" transform="translate(705.25,73.22)" d="M5,0A5,5 0 1,1 0,-5A5,5 0 0,1 5,0Z" style="opacity: 1; stroke-width: 0px; fill: rgb(0, 146, 204); fill-opacity: 1;"/><path class="point" transform="translate(720.86,104.28)" d="M5,0A5,5 0 1,1 0,-5A5,5 0 0,1 5,0Z" style="opacity: 1; stroke-width: 0px; fill: rgb(0, 146, 204); fill-opacity: 1;"/><path class="point" transform="translate(736.48,142.9)" d="M5,0A5,5 0 1,1 0,-5A5,5 0 0,1 5,0Z" style="opacity: 1; stroke-width: 0px; fill: rgb(0, 146, 204); fill-opacity: 1;"/><path class="point" transform="translate(752.09,187.55)" d="M5,0A5,5 0 1,1 0,-5A5,5 0 0,1 5,0Z" style="opacity: 1; stroke-width: 0px; fill: rgb(0, 146, 204); fill-opacity: 1;"/><path class="point" transform="translate(767.71,236.45)" d="M5,0A5,5 0 1,1 0,-5A5,5 0 0,1 5,0Z" style="opacity: 1; stroke-width: 0px; fill: rgb(0, 146, 204); fill-opacity: 1;"/><path class="point" transform="translate(783.32,287.64)" d="M5,0A5,5 0 1,1 0,-5A5,5 0 0,1 5,0Z" style="opacity: 1; stroke-width: 0px; fill: rgb(0, 146, 204); fill-opacity: 1;"/><path class="point" transform="translate(798.94,339.08)" d="M5,0A5,5 0 1,1 0,-5A5,5 0 0,1 5,0Z" style="opacity: 1; stroke-width: 0px; fill: rgb(0, 146, 204); fill-opacity: 1;"/><path class="point" transform="translate(814.55,388.73)" d="M5,0A5,5 0 1,1 0,-5A5,5 0 0,1 5,0Z" style="opacity: 1; stroke-width: 0px; fill: rgb(0, 146, 204); fill-opacity: 1;"/></g><g class="text"/></g><g class="trace scatter trace5e0ec3" style="stroke-miterlimit: 2; opacity: 1;"><g class="fills"/><g class="errorbars"/><g class="lines"><path class="js-line" d="M49.45,35.65L65.06,40.8L80.68,56.05L96.29,80.78L111.91,114.02L127.52,154.43L143.14,200.41L174.36,301.58L189.98,352.75L205.59,401.57L221.21,446.1L236.82,484.57L252.44,515.45L268.05,537.5L283.66,549.84L299.28,551.99L314.89,543.85L330.51,525.75L346.12,498.42L361.74,462.93L377.35,420.72L392.96,373.45L408.58,323.02L439.81,220.74L455.42,172.98L471.04,130.04L486.65,93.64L502.26,65.23L517.88,45.94L533.49,36.54L549.11,37.41L564.72,48.51L580.34,69.4L595.95,99.24L611.56,136.85L627.18,180.72L642.79,229.12L689.64,381.67L705.25,428.22L720.86,469.41L736.48,503.62L752.09,529.47L767.71,545.93L783.32,552.35L798.94,548.47L814.55,534.45" style="vector-effect: non-scaling-stroke; fill: none; stroke: rgb(255, 51, 51); stroke-opacity: 1; stroke-width: 3px; opacity: 1;"/></g><g class="points"><path class="point" transform="translate(49.45,35.65)" d="M6.5,0L0,6.5L-6.5,0L0,-6.5ZM0,0.5L0.5,0L0,-0.5L-0.5,0Z" style="opacity: 1; stroke-width: 0px; fill: rgb(255, 51, 51); fill-opacity: 1;"/><path class="point" transform="translate(65.06,40.8)" d="M6.5,0L0,6.5L-6.5,0L0,-6.5ZM0,0.5L0.5,0L0,-0.5L-0.5,0Z" style="opacity: 1; stroke-width: 0px; fill: rgb(255, 51, 51); fill-opacity: 1;"/><path class="point" transform="translate(80.68,56.05)" d="M6.5,0L0,6.5L-6.5,0L0,-6.5ZM0,0.5L0.5,0L0,-0.5L-0.5,0Z" style="opacity: 1; stroke-width: 0px; fill: rgb(255, 51, 51); fill-opacity: 1;"/><path class="point" transform="translate(96.29,80.78)" d="M6.5,0L0,6.5L-6.5,0L0,-6.5ZM0,0.5L0.5,0L0,-0.5L-0.5,0Z" style="opacity: 1; stroke-width: 0px; fill: rgb(255, 51, 51); fill-opacity: 1;"/><path class="point" transform="translate(111.91,114.02)" d="M6.5,0L0,6.5L-6.5,0L0,-6.5ZM0,0.5L0.5,0L0,-0.5L-0.5,0Z" style="opacity: 1; stroke-width: 0px; fill: rgb(255, 51, 51); fill-opacity: 1;"/><path class="point" transform="translate(127.52,154.43)" d="M6.5,0L0,6.5L-6.5,0L0,-6.5ZM0,0.5L0.5,0L0,-0.5L-0.5,0Z" style="opacity: 1; stroke-width: 0px; fill: rgb(255, 51, 51); fill-opacity: 1;"/><path class="point" transform="translate(143.14,200.41)" d="M6.5,0L0,6.5L-6.5,0L0,-6.5ZM0,0.5L0.5,0L0,-0.5L-0.5,0Z" style="opacity: 1; stroke-width: 0px; fill: rgb(255, 51, 51); fill-opacity: 1;"/><path class="point" transform="translate(158.75,250.12)" d="M6.5,0L0,6.5L-6.5,0L0,-6.5ZM0,0.5L0.5,0L0,-0.5L-0.5,0Z" style="opacity: 1; stroke-width: 0px; fill: rgb(255, 51, 51); fill-opacity: 1;"/><path class="point" transform="translate(174.36,301.58)" d="M6.5,0L0,6.5L-6.5,0L0,-6.5ZM0,0.5L0.5,0L0,-0.5L-0.5,0Z" style="opacity: 1; stroke-width: 0px; fill: rgb(255, 51, 51); fill-opacity: 1;"/><path class="point" transform="translate(189.98,352.75)" d="M6.5,0L0,6.5L-6.5,0L0,-6.5ZM0,0.5L0.5,0L0,-0.5L-0.5,0Z" style="opacity: 1; stroke-width: 0px; fill: rgb(255, 51, 51); fill-opacity: 1;"/><path class="point" transform="translate(205.59,401.57)" d="M6.5,0L0,6.5L-6.5,0L0,-6.5ZM0,0.5L0.5,0L0,-0.5L-0.5,0Z" style="opacity: 1; stroke-width: 0px; fill: rgb(255, 51, 51); fill-opacity: 1;"/><path class="point" transform="translate(221.21,446.1)" d="M6.5,0L0,6.5L-6.5,0L0,-6.5ZM0,0.5L0.5,0L0,-0.5L-0.5,0Z" style="opacity: 1; stroke-width: 0px; fill: rgb(255, 51, 51); fill-opacity: 1;"/><path class="point" transform="translate(236.82,484.57)" d="M6.5,0L0,6.5L-6.5,0L0,-6.5ZM0,0.5L0.5,0L0,-0.5L-0.5,0Z" style="opacity: 1; stroke-width: 0px; fill: rgb(255, 51, 51); fill-opacity: 1;"/><path class="point" transform="translate(252.44,515.45)" d="M6.5,0L0,6.5L-6.5,0L0,-6.5ZM0,0.5L0.5,0L0,-0.5L-0.5,0Z" style="opacity: 1; stroke-width: 0px; fill: rgb(255, 51, 51); fill-opacity: 1;"/><path class="point" transform="translate(268.05,537.5)" d="M6.5,0L0,6.5L-6.5,0L0,-6.5ZM0,0.5L0.5,0L0,-0.5L-0.5,0Z" style="opacity: 1; stroke-width: 0px; fill: rgb(255, 51, 51); fill-opacity: 1;"/><path class="point" transform="translate(283.66,549.84)" d="M6.5,0L0,6.5L-6.5,0L0,-6.5ZM0,0.5L0.5,0L0,-0.5L-0.5,0Z" style="opacity: 1; stroke-width: 0px; fill: rgb(255, 51, 51); fill-opacity: 1;"/><path class="point" transform="translate(299.28,551.99)" d="M6.5,0L0,6.5L-6.5,0L0,-6.5ZM0,0.5L0.5,0L0,-0.5L-0.5,0Z" style="opacity: 1; stroke-width: 0px; fill: rgb(255, 51, 51); fill-opacity: 1;"/><path class="point" transform="translate(314.89,543.85)" d="M6.5,0L0,6.5L-6.5,0L0,-6.5ZM0,0.5L0.5,0L0,-0.5L-0.5,0Z" style="opacity: 1; stroke-width: 0px; fill: rgb(255, 51, 51); fill-opacity: 1;"/><path class="point" transform="translate(330.51,525.75)" d="M6.5,0L0,6.5L-6.5,0L0,-6.5ZM0,0.5L0.5,0L0,-0.5L-0.5,0Z" style="opacity: 1; stroke-width: 0px; fill: rgb(255, 51, 51); fill-opacity: 1;"/><path class="point" transform="translate(346.12,498.42)" d="M6.5,0L0,6.5L-6.5,0L0,-6.5ZM0,0.5L0.5,0L0,-0.5L-0.5,0Z" style="opacity: 1; stroke-width: 0px; fill: rgb(255, 51, 51); fill-opacity: 1;"/><path class="point" transform="translate(361.74,462.93)" d="M6.5,0L0,6.5L-6.5,0L0,-6.5ZM0,0.5L0.5,0L0,-0.5L-0.5,0Z" style="opacity: 1; stroke-width: 0px; fill: rgb(255, 51, 51); fill-opacity: 1;"/><path class="point" transform="translate(377.35,420.72)" d="M6.5,0L0,6.5L-6.5,0L0,-6.5ZM0,0.5L0.5,0L0,-0.5L-0.5,0Z" style="opacity: 1; stroke-width: 0px; fill: rgb(255, 51, 51); fill-opacity: 1;"/><path class="point" transform="translate(392.96,373.45)" d="M6.5,0L0,6.5L-6.5,0L0,-6.5ZM0,0.5L0.5,0L0,-0.5L-0.5,0Z" style="opacity: 1; stroke-width: 0px; fill: rgb(255, 51, 51); fill-opacity: 1;"/><path class="point" transform="translate(408.58,323.02)" d="M6.5,0L0,6.5L-6.5,0L0,-6.5ZM0,0.5L0.5,0L0,-0.5L-0.5,0Z" style="opacity: 1; stroke-width: 0px; fill: rgb(255, 51, 51); fill-opacity: 1;"/><path class="point" transform="translate(424.19,271.43)" d="M6.5,0L0,6.5L-6.5,0L0,-6.5ZM0,0.5L0.5,0L0,-0.5L-0.5,0Z" style="opacity: 1; stroke-width: 0px; fill: rgb(255, 51, 51); fill-opacity: 1;"/><path class="point" transform="translate(439.81,220.74)" d="M6.5,0L0,6.5L-6.5,0L0,-6.5ZM0,0.5L0.5,0L0,-0.5L-0.5,0Z" style="opacity: 1; stroke-width: 0px; fill: rgb(255, 51, 51); fill-opacity: 1;"/><path class="point" transform="translate(455.42,172.98)" d="M6.5,0L0,6.5L-6.5,0L0,-6.5ZM0,0.5L0.5,0L0,-0.5L-0.5,0Z" style="opacity: 1; stroke-width: 0px; fill: rgb(255, 51, 51); fill-opacity: 1;"/><path class="point" transform="translate(471.04,130.04)" d="M6.5,0L0,6.5L-6.5,0L0,-6.5ZM0,0.5L0.5,0L0,-0.5L-0.5,0Z" style="opacity: 1; stroke-width: 0px; fill: rgb(255, 51, 51); fill-opacity: 1;"/><path class="point" transform="translate(486.65,93.64)" d="M6.5,0L0,6.5L-6.5,0L0,-6.5ZM0,0.5L0.5,0L0,-0.5L-0.5,0Z" style="opacity: 1; stroke-width: 0px; fill: rgb(255, 51, 51); fill-opacity: 1;"/><path class="point" transform="translate(502.26,65.23)" d="M6.5,0L0,6.5L-6.5,0L0,-6.5ZM0,0.5L0.5,0L0,-0.5L-0.5,0Z" style="opacity: 1; stroke-width: 0px; fill: rgb(255, 51, 51); fill-opacity: 1;"/><path class="point" transform="translate(517.88,45.94)" d="M6.5,0L0,6.5L-6.5,0L0,-6.5ZM0,0.5L0.5,0L0,-0.5L-0.5,0Z" style="opacity: 1; stroke-width: 0px; fill: rgb(255, 51, 51); fill-opacity: 1;"/><path class="point" transform="translate(533.49,36.54)" d="M6.5,0L0,6.5L-6.5,0L0,-6.5ZM0,0.5L0.5,0L0,-0.5L-0.5,0Z" style="opacity: 1; stroke-width: 0px; fill: rgb(255, 51, 51); fill-opacity: 1;"/><path class="point" transform="translate(549.11,37.41)" d="M6.5,0L0,6.5L-6.5,0L0,-6.5ZM0,0.5L0.5,0L0,-0.5L-0.5,0Z" style="opacity: 1; stroke-width: 0px; fill: rgb(255, 51, 51); fill-opacity: 1;"/><path class="point" transform="translate(564.72,48.51)" d="M6.5,0L0,6.5L-6.5,0L0,-6.5ZM0,0.5L0.5,0L0,-0.5L-0.5,0Z" style="opacity: 1; stroke-width: 0px; fill: rgb(255, 51, 51); fill-opacity: 1;"/><path class="point" transform="translate(580.34,69.4)" d="M6.5,0L0,6.5L-6.5,0L0,-6.5ZM0,0.5L0.5,0L0,-0.5L-0.5,0Z" style="opacity: 1; stroke-width: 0px; fill: rgb(255, 51, 51); fill-opacity: 1;"/><path class="point" transform="translate(595.95,99.24)" d="M6.5,0L0,6.5L-6.5,0L0,-6.5ZM0,0.5L0.5,0L0,-0.5L-0.5,0Z" style="opacity: 1; stroke-width: 0px; fill: rgb(255, 51, 51); fill-opacity: 1;"/><path class="point" transform="translate(611.56,136.85)" d="M6.5,0L0,6.5L-6.5,0L0,-6.5ZM0,0.5L0.5,0L0,-0.5L-0.5,0Z" style="opacity: 1; stroke-width: 0px; fill: rgb(255, 51, 51); fill-opacity: 1;"/><path class="point" transform="translate(627.18,180.72)" d="M6.5,0L0,6.5L-6.5,0L0,-6.5ZM0,0.5L0.5,0L0,-0.5L-0.5,0Z" style="opacity: 1; stroke-width: 0px; fill: rgb(255, 51, 51); fill-opacity: 1;"/><path class="point" transform="translate(642.79,229.12)" d="M6.5,0L0,6.5L-6.5,0L0,-6.5ZM0,0.5L0.5,0L0,-0.5L-0.5,0Z" style="opacity: 1; stroke-width: 0px; fill: rgb(255, 51, 51); fill-opacity: 1;"/><path class="point" transform="translate(658.41,280.1)" d="M6.5,0L0,6.5L-6.5,0L0,-6.5ZM0,0.5L0.5,0L0,-0.5L-0.5,0Z" style="opacity: 1; stroke-width: 0px; fill: rgb(255, 51, 51); fill-opacity: 1;"/><path class="point" transform="translate(674.02,331.64)" d="M6.5,0L0,6.5L-6.5,0L0,-6.5ZM0,0.5L0.5,0L0,-0.5L-0.5,0Z" style="opacity: 1; stroke-width: 0px; fill: rgb(255, 51, 51); fill-opacity: 1;"/><path class="point" transform="translate(689.64,381.67)" d="M6.5,0L0,6.5L-6.5,0L0,-6.5ZM0,0.5L0.5,0L0,-0.5L-0.5,0Z" style="opacity: 1; stroke-width: 0px; fill: rgb(255, 51, 51); fill-opacity: 1;"/><path class="point" transform="translate(705.25,428.22)" d="M6.5,0L0,6.5L-6.5,0L0,-6.5ZM0,0.5L0.5,0L0,-0.5L-0.5,0Z" style="opacity: 1; stroke-width: 0px; fill: rgb(255, 51, 51); fill-opacity: 1;"/><path class="point" transform="translate(720.86,469.41)" d="M6.5,0L0,6.5L-6.5,0L0,-6.5ZM0,0.5L0.5,0L0,-0.5L-0.5,0Z" style="opacity: 1; stroke-width: 0px; fill: rgb(255, 51, 51); fill-opacity: 1;"/><path class="point" transform="translate(736.48,503.62)" d="M6.5,0L0,6.5L-6.5,0L0,-6.5ZM0,0.5L0.5,0L0,-0.5L-0.5,0Z" style="opacity: 1; stroke-width: 0px; fill: rgb(255, 51, 51); fill-opacity: 1;"/><path class="point" transform="translate(752.09,529.47)" d="M6.5,0L0,6.5L-6.5,0L0,-6.5ZM0,0.5L0.5,0L0,-0.5L-0.5,0Z" style="opacity: 1; stroke-width: 0px; fill: rgb(255, 51, 51); fill-opacity: 1;"/><path class="point" transform="translate(767.71,545.93)" d="M6.5,0L0,6.5L-6.5,0L0,-6.5ZM0,0.5L0.5,0L0,-0.5L-0.5,0Z" style="opacity: 1; stroke-width: 0px; fill: rgb(255, 51, 51); fill-opacity: 1;"/><path class="point" transform="translate(783.32,552.35)" d="M6.5,0L0,6.5L-6.5,0L0,-6.5ZM0,0.5L0.5,0L0,-0.5L-0.5,0Z" style="opacity: 1; stroke-width: 0px; fill: rgb(255, 51, 51); fill-opacity: 1;"/><path class="point" transform="translate(798.94,548.47)" d="M6.5,0L0,6.5L-6.5,0L0,-6.5ZM0,0.5L0.5,0L0,-0.5L-0.5,0Z" style="opacity: 1; stroke-width: 0px; fill: rgb(255, 51, 51); fill-opacity: 1;"/><path class="point" transform="translate(814.55,534.45)" d="M6.5,0L0,6.5L-6.5,0L0,-6.5ZM0,0.5L0.5,0L0,-0.5L-0.5,0Z" style="opacity: 1; stroke-width: 0px; fill: rgb(255, 51, 51); fill-opacity: 1;"/></g><g class="text"/></g></g></g><g class="overplot"/><path class="xlines-above crisp" d="M80,688h864" style="fill: none; stroke-width: 4px; stroke: rgb(240, 240, 240); stroke-opacity: 1;"/><path class="ylines-above crisp" d="M80,100v588" style="fill: none; stroke-width: 4px; stroke: rgb(240, 240, 240); stroke-opacity: 1;"/><g class="overlines-above"/><g class="xaxislayer-above"><path class="xtick ticks crisp" d="M0,690v6" transform="translate(129.45,0)" style="stroke: rgb(240, 240, 240); stroke-opacity: 1; stroke-width: 3px;"/><path class="xtick ticks crisp" d="M0,690v6" transform="translate(285.59000000000003,0)" style="stroke: rgb(240, 240, 240); stroke-opacity: 1; stroke-width: 3px;"/><path class="xtick ticks crisp" d="M0,690v6" transform="translate(441.74,0)" style="stroke: rgb(240, 240, 240); stroke-opacity: 1; stroke-width: 3px;"/><path class="xtick ticks crisp" d="M0,690v6" transform="translate(597.88,0)" style="stroke: rgb(240, 240, 240); stroke-opacity: 1; stroke-width: 3px;"/><path class="xtick ticks crisp" d="M0,690v6" transform="translate(754.02,0)" style="stroke: rgb(240, 240, 240); stroke-opacity: 1; stroke-width: 3px;"/><path class="xtick ticks crisp" d="M0,690v6" transform="translate(910.16,0)" style="stroke: rgb(240, 240, 240); stroke-opacity: 1; stroke-width: 3px;"/><g class="xtick"><text text-anchor="middle" x="0" y="724.8" transform="translate(129.45,0)" style="font-family: 'Open Sans', verdana, arial, sans-serif; font-size: 24px; fill: rgb(240, 240, 240); fill-opacity: 1; white-space: pre;">0</text></g><g class="xtick"><text text-anchor="middle" x="0" y="724.8" transform="translate(285.59000000000003,0)" style="font-family: 'Open Sans', verdana, arial, sans-serif; font-size: 24px; fill: rgb(240, 240, 240); fill-opacity: 1; white-space: pre;">2</text></g><g class="xtick"><text text-anchor="middle" x="0" y="724.8" transform="translate(441.74,0)" style="font-family: 'Open Sans', verdana, arial, sans-serif; font-size: 24px; fill: rgb(240, 240, 240); fill-opacity: 1; white-space: pre;">4</text></g><g class="xtick"><text text-anchor="middle" x="0" y="724.8" transform="translate(597.88,0)" style="font-family: 'Open Sans', verdana, arial, sans-serif; font-size: 24px; fill: rgb(240, 240, 240); fill-opacity: 1; white-space: pre;">6</text></g><g class="xtick"><text text-anchor="middle" x="0" y="724.8" transform="translate(754.02,0)" style="font-family: 'Open Sans', verdana, arial, sans-serif; font-size: 24px; fill: rgb(240, 240, 240); fill-opacity: 1; white-space: pre;">8</text></g><g class="xtick"><text text-anchor="middle" x="0" y="724.8" transform="translate(910.16,0)" style="font-family: 'Open Sans', verdana, arial, sans-serif; font-size: 24px; fill: rgb(240, 240, 240); fill-opacity: 1; white-space: pre;">10</text></g></g><g class="yaxislayer-above"><path class="ytick ticks crisp" d="M78,0h-6" transform="translate(0,652.43)" style="stroke: rgb(240, 240, 240); stroke-opacity: 1; stroke-width: 3px;"/><path class="ytick ticks crisp" d="M78,0h-6" transform="translate(0,523.23)" style="stroke: rgb(240, 240, 240); stroke-opacity: 1; stroke-width: 3px;"/><path class="ytick ticks crisp" d="M78,0h-6" transform="translate(0,394.04)" style="stroke: rgb(240, 240, 240); stroke-opacity: 1; stroke-width: 3px;"/><path class="ytick ticks crisp" d="M78,0h-6" transform="translate(0,264.84000000000003)" style="stroke: rgb(240, 240, 240); stroke-opacity: 1; stroke-width: 3px;"/><path class="ytick ticks crisp" d="M78,0h-6" transform="translate(0,135.65)" style="stroke: rgb(240, 240, 240); stroke-opacity: 1; stroke-width: 3px;"/><g class="ytick"><text text-anchor="end" x="67.2" y="8.399999999999999" transform="translate(0,652.43)" style="font-family: 'Open Sans', verdana, arial, sans-serif; font-size: 24px; fill: rgb(240, 240, 240); fill-opacity: 1; white-space: pre;">−1</text></g><g class="ytick"><text text-anchor="end" x="67.2" y="8.399999999999999" transform="translate(0,523.23)" style="font-family: 'Open Sans', verdana, arial, sans-serif; font-size: 24px; fill: rgb(240, 240, 240); fill-opacity: 1; white-space: pre;">−0.5</text></g><g class="ytick"><text text-anchor="end" x="67.2" y="8.399999999999999" transform="translate(0,394.04)" style="font-family: 'Open Sans', verdana, arial, sans-serif; font-size: 24px; fill: rgb(240, 240, 240); fill-opacity: 1; white-space: pre;">0</text></g><g class="ytick"><text text-anchor="end" x="67.2" y="8.399999999999999" transform="translate(0,264.84000000000003)" style="font-family: 'Open Sans', verdana, arial, sans-serif; font-size: 24px; fill: rgb(240, 240, 240); fill-opacity: 1; white-space: pre;">0.5</text></g><g class="ytick"><text text-anchor="end" x="67.2" y="8.399999999999999" transform="translate(0,135.65)" style="font-family: 'Open Sans', verdana, arial, sans-serif; font-size: 24px; fill: rgb(240, 240, 240); fill-opacity: 1; white-space: pre;">1</text></g></g><g class="overaxes-above"/></g></g><g class="polarlayer"/><g class="ternarylayer"/><g class="geolayer"/><g class="funnelarealayer"/><g class="pielayer"/><g class="treemaplayer"/><g class="sunburstlayer"/><g class="glimages"/><defs id="topdefs-b14290"><g class="clips"/><clipPath id="legendb14290"><rect width="138" height="107" x="3" y="3"/></clipPath></defs><g class="layer-above"><g class="imagelayer"/><g class="shapelayer"><path data-index="0" fill-rule="evenodd" d="M80,100L944,100" style="opacity: 1; stroke: rgb(240, 240, 240); stroke-opacity: 1; fill: rgb(0, 0, 0); fill-opacity: 0; stroke-width: 4px;"/><path data-index="1" fill-rule="evenodd" d="M944,688L944,100" style="opacity: 1; stroke: rgb(240, 240, 240); stroke-opacity: 1; fill: rgb(0, 0, 0); fill-opacity: 0; stroke-width: 4px;"/></g></g><g class="infolayer"><g class="legend" pointer-events="all" transform="translate(88.64,567.1796)"><rect class="bg" shape-rendering="crispEdges" style="stroke: rgb(240, 240, 240); stroke-opacity: 1; fill: rgb(40, 40, 40); fill-opacity: 1; stroke-width: 3px;" width="141" height="110" x="1.5" y="1.5"/><g class="scrollbox" transform="" clip-path="url('#legendb14290')"><g class="groups"><g class="traces" transform="translate(3,32.25)" style="opacity: 1;"><text class="legendtext" text-anchor="start" x="40" y="13.65" style="font-family: 'Open Sans', verdana, arial, sans-serif; font-size: 35px; fill: rgb(240, 240, 240); fill-opacity: 1; white-space: pre;">sin(x)</text><g class="layers" style="opacity: 1;"><g class="legendfill"/><g class="legendlines"><path class="js-line" d="M5,0h30" style="fill: none; stroke: rgb(0, 146, 204); stroke-opacity: 1; stroke-width: 3px;"/></g><g class="legendsymbols"><g class="legendpoints"><path class="scatterpts" transform="translate(20,0)" d="M5,0A5,5 0 1,1 0,-5A5,5 0 0,1 5,0Z" style="opacity: 1; stroke-width: 0px; fill: rgb(0, 146, 204); fill-opacity: 1;"/></g></g></g><rect class="legendtoggle" x="0" y="-24.25" width="133" height="48.5" style="fill: rgb(0, 0, 0); fill-opacity: 0;"/></g><g class="traces" transform="translate(3,80.75)" style="opacity: 1;"><text class="legendtext" text-anchor="start" x="40" y="13.65" style="font-family: 'Open Sans', verdana, arial, sans-serif; font-size: 35px; fill: rgb(240, 240, 240); fill-opacity: 1; white-space: pre;">cos(x)</text><g class="layers" style="opacity: 1;"><g class="legendfill"/><g class="legendlines"><path class="js-line" d="M5,0h30" style="fill: none; stroke: rgb(255, 51, 51); stroke-opacity: 1; stroke-width: 3px;"/></g><g class="legendsymbols"><g class="legendpoints"><path class="scatterpts" transform="translate(20,0)" d="M6.5,0L0,6.5L-6.5,0L0,-6.5ZM0,0.5L0.5,0L0,-0.5L-0.5,0Z" style="opacity: 1; stroke-width: 0px; fill: rgb(255, 51, 51); fill-opacity: 1;"/></g></g></g><rect class="legendtoggle" x="0" y="-24.25" width="133" height="48.5" style="fill: rgb(0, 0, 0); fill-opacity: 0;"/></g></g></g><rect class="scrollbar" rx="20" ry="3" width="0" height="0" style="fill: rgb(128, 139, 164); fill-opacity: 1;" x="0" y="0"/></g><g class="g-gtitle"><text class="gtitle" x="512" y="50" text-anchor="middle" dy="0em" style="font-family: serif; font-size: 35px; fill: rgb(240, 240, 240); opacity: 1; font-weight: normal; white-space: pre;">Trigonometric functions</text></g><g class="g-xtitle"/><g class="g-ytitle"/></g></svg>