<svg class="main-svg" xmlns="http://www.w3.org/2000/svg" xmlns:xlink="http://www.w3.org/1999/xlink" width="1024" height="768" style="" viewBox="0 0 1024 768"><rect x="0" y="0" width="1024" height="768" style="fill: rgb(255, 255, 255); fill-opacity: 1;"/><defs id="defs-cbe869"><g class="clips"><clipPath id="clipcbe869xyplot" class="plotclip"><rect width="864" height="588"/></clipPath><clipPath class="axesclip" id="clipcbe869x"><rect x="80" y="0" width="864" height="768"/></clipPath><clipPath class="axesclip" id="clipcbe869y"><rect x="0" y="100" width="1024" height="588"/></clipPath><clipPath class="axesclip" id="clipcbe869xy"><rect x="80" y="100" width="864" height="588"/></clipPath></g><g class="gradients"/></defs><g class="bglayer"><rect class="bg" x="80" y="100" width="864" height="588" style="fill: rgb(0, 0, 0); fill-opacity: 0; stroke-width: 0;"/></g><g class="layer-below"><g class="imagelayer"/><g class="shapelayer"/></g><g class="cartesianlayer"><g class="subplot xy"><g class="layer-subplot"><g class="shapelayer"/><g class="imagelayer"/></g><g class="gridlayer"><g class="x"><path class="xgrid crisp" transform="translate(168.16,0)" d="M0,100v588" style="stroke: rgb(120, 120, 120); stroke-opacity: 1; stroke-width: 1px;"/><path class="xgrid crisp" transform="translate(256.33000000000004,0)" d="M0,100v588" style="stroke: rgb(120, 120, 120); stroke-opacity: 1; stroke-width: 1px;"/><path class="xgrid crisp" transform="translate(344.49,0)" d="M0,100v588" style="stroke: rgb(120, 120, 120); stroke-opacity: 1; stroke-width: 1px;"/><path class="xgrid crisp" transform="translate(432.65,0)" d="M0,100v588" style="stroke: rgb(120, 120, 120); stroke-opacity: 1; stroke-width: 1px;"/><path class="xgrid crisp" transform="translate(520.8199999999999,0)" d="M0,100v588" style="stroke: rgb(120, 120, 120); stroke-opacity: 1; stroke-width: 1px;"/><path class="xgrid crisp" transform="translate(608.98,0)" d="M0,100v588" style="stroke: rgb(120, 120, 120); stroke-opacity: 1; stroke-width: 1px;"/><path class="xgrid crisp" transform="translate(697.14,0)" d="M0,100v588" style="stroke: rgb(120, 120, 120); stroke-opacity: 1; stroke-width: 1px;"/><path class="xgrid crisp" transform="translate(785.31,0)" d="M0,100v588" style="stroke: rgb(120, 120, 120); stroke-opacity: 1; stroke-width: 1px;"/><path class="xgrid crisp" transform="translate(873.47,0)" d="M0,100v588" style="stroke: rgb(120, 120, 120); stroke-opacity: 1; stroke-width: 1px;"/></g><g class="y"><path class="ygrid crisp" transform="translate(0,658.68)" d="M80,0h864" style="stroke: rgb(120, 120, 120); stroke-opacity: 1; stroke-width: 1px;"/><path class="ygrid crisp" transform="translate(0,526.36)" d="M80,0h864" style="stroke: rgb(120, 120, 120); stroke-opacity: 1; stroke-width: 1px;"/><path class="ygrid crisp" transform="translate(0,394.04)" d="M80,0h864" style="stroke: rgb(120, 120, 120); stroke-opacity: 1; stroke-width: 1px;"/><path class="ygrid crisp" transform="translate(0,261.72)" d="M80,0h864" style="stroke: rgb(120, 120, 120); stroke-opacity: 1; stroke-width: 1px;"/><path class="ygrid crisp" transform="translate(0,129.4)" d="M80,0h864" style="stroke: rgb(120, 120, 120); stroke-opacity: 1; stroke-width: 1px;"/></g></g><g class="zerolinelayer"/><path class="xlines-below"/><path class="ylines-below"/><g class="overlines-below"/><g class="xaxislayer-below"/><g class="yaxislayer-below"/><g class="overaxes-below"/><g class="plot" transform="translate(80,100)" clip-path="url('#clipcbe869xyplot')"><g class="scatterlayer mlayer"><g class="trace scatter tracee785a5" style="stroke-miterlimit: 2; opacity: 1;"><g class="fills"/><g class="errorbars"/><g class="lines"><path class="js-line" d="M0,294.04L35.27,190.98L52.9,144.61L70.53,104.2L88.16,71.35L105.8,47.39L123.43,33.25L141.06,29.51L158.69,36.32L176.33,53.4L193.96,80.08L211.59,115.29L229.22,157.62L246.86,205.39L264.49,256.69L299.76,361.67L317.39,411.15L335.02,455.96L352.65,494.32L370.29,524.69L387.92,545.87L405.55,557.01L423.18,557.67L440.82,547.81L458.45,527.84L476.08,498.55L493.71,461.1L511.35,416.99L528.98,367.99L581.88,211.59L599.51,163.28L617.14,120.18L634.78,84L652.41,56.21L670.04,37.89L687.67,29.79L705.31,32.22L722.94,45.09L740.57,67.88L758.2,99.69L775.84,139.25L793.47,184.98L811.1,235.05L864,391.03" style="vector-effect: non-scaling-stroke; fill: none; stroke: rgb(0, 0, 139); stroke-opacity: 1; stroke-width: 3px; opacity: 1;"/></g><g class="points"/><g class="text"/></g><g class="trace scatter tracef75617" style="stroke-miterlimit: 2; opacity: 1;"><g class="fills"/><g class="errorbars"/><g class="lines"><path class="js-line" d="M0,29.4L17.63,34.68L35.27,50.29L52.9,75.62L70.53,109.66L88.16,151.05L105.8,198.15L141.06,301.77L158.69,354.17L176.33,404.17L193.96,449.78L211.59,489.18L229.22,520.81L246.86,543.39L264.49,556.03L282.12,558.23L299.76,549.89L317.39,531.36L335.02,503.36L352.65,467.02L370.29,423.78L387.92,375.37L405.55,323.72L440.82,218.97L458.45,170.05L476.08,126.08L493.71,88.79L511.35,59.7L528.98,39.94L546.61,30.32L564.24,31.2L581.88,42.57L599.51,63.96L617.14,94.53L634.78,133.05L652.41,177.98L670.04,227.55L722.94,383.79L740.57,431.47L758.2,473.66L775.84,508.69L793.47,535.16L811.1,552.02L828.73,558.6L846.37,554.63L864,540.27" style="vector-effect: non-scaling-stroke; fill: none; stroke: rgb(139, 0, 0); stroke-opacity: 1; stroke-width: 3px; opacity: 1; stroke-dasharray: 9px, 9px;"/></g><g class="points"/><g class="text"/></g></g></g><g class="overplot"/><path class="xlines-above crisp" d="M80,688.5h864" style="fill: none; stroke-width: 3px; stroke: rgb(0, 0, 0); stroke-opacity: 1;"/><path class="ylines-above crisp" d="M80.5,100v588" style="fill: none; stroke-width: 3px; stroke: rgb(0, 0, 0); stroke-opacity: 1;"/><g class="overlines-above"/><g class="xaxislayer-above"><path class="xtick ticks crisp" d="M0,690v6" transform="translate(80,0)" style="stroke: rgb(0, 0, 0); stroke-opacity: 1; stroke-width: 3px;"/><path class="xtick ticks crisp" d="M0,690v6" transform="translate(168.16,0)" style="stroke: rgb(0, 0, 0); stroke-opacity: 1; stroke-width: 3px;"/><path class="xtick ticks crisp" d="M0,690v6" transform="translate(256.33000000000004,0)" style="stroke: rgb(0, 0, 0); stroke-opacity: 1; stroke-width: 3px;"/><path class="xtick ticks crisp" d="M0,690v6" transform="translate(344.49,0)" style="stroke: rgb(0, 0, 0); stroke-opacity: 1; stroke-width: 3px;"/><path class="xtick ticks crisp" d="M0,690v6" transform="translate(432.65,0)" style="stroke: rgb(0, 0, 0); stroke-opacity: 1; stroke-width: 3px;"/><path class="xtick ticks crisp" d="M0,690v6" transform="translate(520.8199999999999,0)" style="stroke: rgb(0, 0, 0); stroke-opacity: 1; stroke-width: 3px;"/><path class="xtick ticks crisp" d="M0,690v6" transform="translate(608.98,0)" style="stroke: rgb(0, 0, 0); stroke-opacity: 1; stroke-width: 3px;"/><path class="xtick ticks crisp" d="M0,690v6" transform="translate(697.14,0)" style="stroke: rgb(0, 0, 0); stroke-opacity: 1; stroke-width: 3px;"/><path class="xtick ticks crisp" d="M0,690v6" transform="translate(785.31,0)" style="stroke: rgb(0, 0, 0); stroke-opacity: 1; stroke-width: 3px;"/><path class="xtick ticks crisp" d="M0,690v6" transform="translate(873.47,0)" style="stroke: rgb(0, 0, 0); stroke-opacity: 1; stroke-width: 3px;"/><g class="xtick"><text text-anchor="middle" x="0" y="732" transform="translate(80,0)" style="font-family: 'Open Sans', verdana, arial, sans-serif; font-size: 30px; fill: rgb(0, 0, 0); fill-opacity: 1; white-space: pre;">0</text></g><g class="xtick"><text text-anchor="middle" x="0" y="732" transform="translate(168.16,0)" style="font-family: 'Open Sans', verdana, arial, sans-serif; font-size: 30px; fill: rgb(0, 0, 0); fill-opacity: 1; white-space: pre;">1</text></g><g class="xtick"><text text-anchor="middle" x="0" y="732" transform="translate(256.33000000000004,0)" style="font-family: 'Open Sans', verdana, arial, sans-serif; font-size: 30px; fill: rgb(0, 0, 0); fill-opacity: 1; white-space: pre;">2</text></g><g class="xtick"><text text-anchor="middle" x="0" y="732" transform="translate(344.49,0)" style="font-family: 'Open Sans', verdana, arial, sans-serif; font-size: 30px; fill: rgb(0, 0, 0); fill-opacity: 1; white-space: pre;">3</text></g><g class="xtick"><text text-anchor="middle" x="0" y="732" transform="translate(432.65,0)" style="font-family: 'Open Sans', verdana, arial, sans-serif; font-size: 30px; fill: rgb(0, 0, 0); fill-opacity: 1; white-space: pre;">4</text></g><g class="xtick"><text text-anchor="middle" x="0" y="732" transform="translate(520.8199999999999,0)" style="font-family: 'Open Sans', verdana, arial, sans-serif; font-size: 30px; fill: rgb(0, 0, 0); fill-opacity: 1; white-space: pre;">5</text></g><g class="xtick"><text text-anchor="middle" x="0" y="732" transform="translate(608.98,0)" style="font-family: 'Open Sans', verdana, arial, sans-serif; font-size: 30px; fill: rgb(0, 0, 0); fill-opacity: 1; white-space: pre;">6</text></g><g class="xtick"><text text-anchor="middle" x="0" y="732" transform="translate(697.14,0)" style="font-family: 'Open Sans', verdana, arial, sans-serif; font-size: 30px; fill: rgb(0, 0, 0); fill-opacity: 1; white-space: pre;">7</text></g><g class="xtick"><text text-anchor="middle" x="0" y="732" transform="translate(785.31,0)" style="font-family: 'Open Sans', verdana, arial, sans-serif; font-size: 30px; fill: rgb(0, 0, 0); fill-opacity: 1; white-space: pre;">8</text></g><g class="xtick"><text text-anchor="middle" x="0" y="732" transform="translate(873.47,0)" style="font-family: 'Open Sans', verdana, arial, sans-serif; font-size: 30px; fill: rgb(0, 0, 0); fill-opacity: 1; white-space: pre;">9</text></g></g><g class="yaxislayer-above"><path class="ytick ticks crisp" d="M79,0h-6" transform="translate(0,658.68)" style="stroke: rgb(0, 0, 0); stroke-opacity: 1; stroke-width: 3px;"/><path class="ytick ticks crisp" d="M79,0h-6" transform="translate(0,526.36)" style="stroke: rgb(0, 0, 0); stroke-opacity: 1; stroke-width: 3px;"/><path class="ytick ticks crisp" d="M79,0h-6" transform="translate(0,394.04)" style="stroke: rgb(0, 0, 0); stroke-opacity: 1; stroke-width: 3px;"/><path class="ytick ticks crisp" d="M79,0h-6" transform="translate(0,261.72)" style="stroke: rgb(0, 0, 0); stroke-opacity: 1; stroke-width: 3px;"/><path class="ytick ticks crisp" d="M79,0h-6" transform="translate(0,129.4)" style="stroke: rgb(0, 0, 0); stroke-opacity: 1; stroke-width: 3px;"/><g class="ytick"><text text-anchor="end" x="67" y="10.5" transform="translate(0,658.68)" style="font-family: 'Open Sans', verdana, arial, sans-serif; font-size: 30px; fill: rgb(0, 0, 0); fill-opacity: 1; white-space: pre;">−1</text></g><g class="ytick"><text text-anchor="end" x="67" y="10.5" transform="translate(0,526.36)" style="font-family: 'Open Sans', verdana, arial, sans-serif; font-size: 30px; fill: rgb(0, 0, 0); fill-opacity: 1; white-space: pre;">−0.5</text></g><g class="ytick"><text text-anchor="end" x="67" y="10.5" transform="translate(0,394.04)" style="font-family: 'Open Sans', verdana, arial, sans-serif; font-size: 30px; fill: rgb(0, 0, 0); fill-opacity: 1; white-space: pre;">0</text></g><g class="ytick"><text text-anchor="end" x="67" y="10.5" transform="translate(0,261.72)" style="font-family: 'Open Sans', verdana, arial, sans-serif; font-size: 30px; fill: rgb(0, 0, 0); fill-opacity: 1; white-space: pre;">0.5</text></g><g class="ytick"><text text-anchor="end" x="67" y="10.5" transform="translate(0,129.4)" style="font-family: 'Open Sans', verdana, arial, sans-serif; font-size: 30px; fill: rgb(0, 0, 0); fill-opacity: 1; white-space: pre;">1</text></g></g><g class="overaxes-above"/></g></g><g class="polarlayer"/><g class="ternarylayer"/><g class="geolayer"/><g class="funnelarealayer"/><g class="pielayer"/><g class="treemaplayer"/><g class="sunburstlayer"/><g class="glimages"/><defs id="topdefs-cbe869"><g class="clips"/><clipPath id="legendcbe869"><rect width="175" height="107" x="3" y="3"/></clipPath></defs><g class="layer-above"><g class="imagelayer"/><g class="shapelayer"><path data-index="0" fill-rule="evenodd" d="M80,100L944,100" style="opacity: 1; stroke: rgb(0, 0, 0); stroke-opacity: 1; fill: rgb(0, 0, 0); fill-opacity: 0; stroke-width: 3px;"/><path data-index="1" fill-rule="evenodd" d="M944,688L944,100" style="opacity: 1; stroke: rgb(0, 0, 0); stroke-opacity: 1; fill: rgb(0, 0, 0); fill-opacity: 0; stroke-width: 3px;"/></g></g><g class="infolayer"><g class="legend" pointer-events="all" transform="translate(88.64,567.1796)"><rect class="bg" shape-rendering="crispEdges" style="stroke: rgb(0, 0, 0); stroke-opacity: 1; fill: rgb(255, 255, 255); fill-opacity: 1; stroke-width: 3px;" width="178" height="110" x="1.5" y="1.5"/><g class="scrollbox" transform="" clip-path="url('#legendcbe869')"><g class="groups"><g class="traces" transform="translate(3,32.25)" style="opacity: 1;"><text class="legendtext" text-anchor="start" x="62" y="13.65" style="font-family: serif; font-size: 35px; fill: rgb(0, 0, 0); fill-opacity: 1; white-space: pre;">sin(x)  </text><g class="layers" style="opacity: 1;"><g class="legendfill"/><g class="legendlines"><path class="js-line" d="M5,0h52" style="fill: none; stroke: rgb(0, 0, 139); stroke-opacity: 1; stroke-width: 3px;"/></g><g class="legendsymbols"><g class="legendpoints"/></g></g><rect class="legendtoggle" x="0" y="-24.25" width="170" height="48.5" style="fill: rgb(0, 0, 0); fill-opacity: 0;"/></g><g class="traces" transform="translate(3,80.75)" style="opacity: 1;"><text class="legendtext" text-anchor="start" x="62" y="13.65" style="font-family: serif; font-size: 35px; fill: rgb(0, 0, 0); fill-opacity: 1; white-space: pre;">cos(x)  </text><g class="layers" style="opacity: 1;"><g class="legendfill"/><g class="legendlines"><path class="js-line" d="M5,0h52" style="fill: none; stroke: rgb(139, 0, 0); stroke-opacity: 1; stroke-dasharray: 9px, 9px; stroke-width: 3px;"/></g><g class="legendsymbols"><g class="legendpoints"/></g></g><rect class="legendtoggle" x="0" y="-24.25" width="170" height="48.5" style="fill: rgb(0, 0, 0); fill-opacity: 0;"/></g></g></g><rect class="scrollbar" rx="20" ry="3" width="0" height="0" style="fill: rgb(128, 139, 164); fill-opacity: 1;" x="0" y="0"/></g><g class="g-gtitle"><text class="gtitle" x="512" y="50" text-anchor="middle" dy="0em" style="font-family: serif; font-size: 35px; fill: rgb(0, 0, 0); opacity: 1; font-weight: normal; white-space: pre;">Trigonometric functions</text></g><g class="g-xtitle" transform="translate(0,-45)"><text class="xtitle" x="512" y="805" text-anchor="middle" style="font-family: serif; font-size: 35px; fill: rgb(0, 0, 0); opacity: 1; font-weight: normal; white-space: pre;">x, radians</text></g><g class="g-ytitle" transform="translate(33,0)"><text class="ytitle" transform="rotate(-90,-2,394)" x="-2" y="394" text-anchor="middle" style="font-family: serif; font-size: 35px; fill: rgb(0, 0, 0); opacity: 1; font-weight: normal; white-space: pre;">f(x)</text></g></g></svg>