<svg class="main-svg" xmlns="http://www.w3.org/2000/svg" xmlns:xlink="http://www.w3.org/1999/xlink" width="1024" height="768" style="" viewBox="0 0 1024 768"><rect x="0" y="0" width="1024" height="768" style="fill: rgb(255, 255, 255); fill-opacity: 1;"/><defs id="defs-d256f9"><g class="clips"><clipPath id="clipd256f9xyplot" class="plotclip"><rect width="839" height="593"/></clipPath><clipPath class="axesclip" id="clipd256f9x"><rect x="105" y="0" width="839" height="768"/></clipPath><clipPath class="axesclip" id="clipd256f9y"><rect x="0" y="100" width="1024" height="593"/></clipPath><clipPath class="axesclip" id="clipd256f9xy"><rect x="105" y="100" width="839" height="593"/></clipPath></g><g class="gradients"/></defs><g class="bglayer"><rect class="bg" x="105" y="100" width="839" height="593" style="fill: rgb(0, 0, 0); fill-opacity: 0; stroke-width: 0;"/></g><g class="layer-below"><g class="imagelayer"/><g class="shapelayer"/></g><g class="cartesianlayer"><g class="subplot xy"><g class="layer-subplot"><g class="shapelayer"/><g class="imagelayer"/></g><g class="gridlayer"><g class="x"><path class="xgrid crisp" transform="translate(153.2,0)" d="M0,100v593" style="stroke: rgb(120, 120, 120); stroke-opacity: 1; stroke-width: 1px;"/><path class="xgrid crisp" transform="translate(276.97,0)" d="M0,100v593" style="stroke: rgb(120, 120, 120); stroke-opacity: 1; stroke-width: 1px;"/><path class="xgrid crisp" transform="translate(400.73,0)" d="M0,100v593" style="stroke: rgb(120, 120, 120); stroke-opacity: 1; stroke-width: 1px;"/><path class="xgrid crisp" transform="translate(524.5,0)" d="M0,100v593" style="stroke: rgb(120, 120, 120); stroke-opacity: 1; stroke-width: 1px;"/><path class="xgrid crisp" transform="translate(648.27,0)" d="M0,100v593" style="stroke: rgb(120, 120, 120); stroke-opacity: 1; stroke-width: 1px;"/><path class="xgrid crisp" transform="translate(772.03,0)" d="M0,100v593" style="stroke: rgb(120, 120, 120); stroke-opacity: 1; stroke-width: 1px;"/><path class="xgrid crisp" transform="translate(895.8,0)" d="M0,100v593" style="stroke: rgb(120, 120, 120); stroke-opacity: 1; stroke-width: 1px;"/></g><g class="y"><path class="ygrid crisp" transform="translate(0,657.1)" d="M105,0h839" style="stroke: rgb(120, 120, 120); stroke-opacity: 1; stroke-width: 1px;"/><path class="ygrid crisp" transform="translate(0,566.46)" d="M105,0h839" style="stroke: rgb(120, 120, 120); stroke-opacity: 1; stroke-width: 1px;"/><path class="ygrid crisp" transform="translate(0,475.81)" d="M105,0h839" style="stroke: rgb(120, 120, 120); stroke-opacity: 1; stroke-width: 1px;"/><path class="ygrid crisp" transform="translate(0,385.17)" d="M105,0h839" style="stroke: rgb(120, 120, 120); stroke-opacity: 1; stroke-width: 1px;"/><path class="ygrid crisp" transform="translate(0,294.53)" d="M105,0h839" style="stroke: rgb(120, 120, 120); stroke-opacity: 1; stroke-width: 1px;"/><path class="ygrid crisp" transform="translate(0,203.88)" d="M105,0h839" style="stroke: rgb(120, 120, 120); stroke-opacity: 1; stroke-width: 1px;"/><path class="ygrid crisp" transform="translate(0,113.24)" d="M105,0h839" style="stroke: rgb(120, 120, 120); stroke-opacity: 1; stroke-width: 1px;"/></g></g><g class="zerolinelayer"/><path class="xlines-below"/><path class="ylines-below"/><g class="overlines-below"/><g class="xaxislayer-below"/><g class="yaxislayer-below"/><g class="overaxes-below"/><g class="plot" transform="translate(105,100)" clip-path="url('#clipd256f9xyplot')"><g class="scatterlayer mlayer"><g class="trace scatter trace2c12f0" style="stroke-miterlimit: 2; opacity: 1;"><g class="fills"/><g class="errorbars"/><g class="lines"><path class="js-line" d="M48.2,557.04L110.08,556.11L116.27,555.84L141.02,553.86L147.21,553.06L165.78,549.45L171.97,547.73L184.34,543.27L190.53,540.41L202.91,533.18L209.1,528.68L221.47,517.57L227.66,510.82L240.04,494.63L246.23,485.06L258.6,462.74L264.79,449.9L277.17,420.83L283.36,404.6L295.73,368.97L301.92,349.7L320.49,287.44L326.68,265.71L351.43,179.19L357.62,158.82L369.99,121.31L376.18,104.66L388.56,76.68L394.75,65.75L400.94,57.08L407.12,50.79L413.31,46.98L419.5,45.7L425.69,46.98L431.88,50.79L438.07,57.08L444.25,65.75L450.44,76.68L456.63,89.71L469.01,121.31L475.2,139.45L487.57,179.19L493.76,200.31L537.08,349.7L543.27,368.97L555.64,404.6L561.83,420.83L574.21,449.9L580.4,462.74L592.77,485.06L598.96,494.63L611.34,510.82L617.53,517.57L629.9,528.68L636.09,533.18L648.47,540.41L654.66,543.27L667.03,547.73L673.22,549.45L691.79,553.06L697.98,553.86L722.73,555.84L728.92,556.11L772.24,556.95L778.42,556.99L790.8,557.04" style="vector-effect: non-scaling-stroke; fill: none; stroke: rgb(0, 0, 139); stroke-opacity: 1; stroke-width: 3px; opacity: 1;"/></g><g class="points"/><g class="text"/></g><g class="trace scatter traceadf36a" style="stroke-miterlimit: 2; opacity: 1;"><g class="fills"/><g class="errorbars"/><g class="lines"/><g class="points"><path class="point" transform="translate(48.2,557.1)" d="M5,0A5,5 0 1,1 0,-5A5,5 0 0,1 5,0Z" style="opacity: 1; stroke-width: 0px; fill: rgb(139, 0, 0); fill-opacity: 1;"/><path class="point" transform="translate(60.58,556.19)" d="M5,0A5,5 0 1,1 0,-5A5,5 0 0,1 5,0Z" style="opacity: 1; stroke-width: 0px; fill: rgb(139, 0, 0); fill-opacity: 1;"/><path class="point" transform="translate(72.95,557.1)" d="M5,0A5,5 0 1,1 0,-5A5,5 0 0,1 5,0Z" style="opacity: 1; stroke-width: 0px; fill: rgb(139, 0, 0); fill-opacity: 1;"/><path class="point" transform="translate(85.33,557.1)" d="M5,0A5,5 0 1,1 0,-5A5,5 0 0,1 5,0Z" style="opacity: 1; stroke-width: 0px; fill: rgb(139, 0, 0); fill-opacity: 1;"/><path class="point" transform="translate(97.71,557.1)" d="M5,0A5,5 0 1,1 0,-5A5,5 0 0,1 5,0Z" style="opacity: 1; stroke-width: 0px; fill: rgb(139, 0, 0); fill-opacity: 1;"/><path class="point" transform="translate(110.08,557.1)" d="M5,0A5,5 0 1,1 0,-5A5,5 0 0,1 5,0Z" style="opacity: 1; stroke-width: 0px; fill: rgb(139, 0, 0); fill-opacity: 1;"/><path class="point" transform="translate(122.46,556.19)" d="M5,0A5,5 0 1,1 0,-5A5,5 0 0,1 5,0Z" style="opacity: 1; stroke-width: 0px; fill: rgb(139, 0, 0); fill-opacity: 1;"/><path class="point" transform="translate(134.84,553.47)" d="M5,0A5,5 0 1,1 0,-5A5,5 0 0,1 5,0Z" style="opacity: 1; stroke-width: 0px; fill: rgb(139, 0, 0); fill-opacity: 1;"/><path class="point" transform="translate(147.21,556.19)" d="M5,0A5,5 0 1,1 0,-5A5,5 0 0,1 5,0Z" style="opacity: 1; stroke-width: 0px; fill: rgb(139, 0, 0); fill-opacity: 1;"/><path class="point" transform="translate(159.59,552.57)" d="M5,0A5,5 0 1,1 0,-5A5,5 0 0,1 5,0Z" style="opacity: 1; stroke-width: 0px; fill: rgb(139, 0, 0); fill-opacity: 1;"/><path class="point" transform="translate(171.97,548.04)" d="M5,0A5,5 0 1,1 0,-5A5,5 0 0,1 5,0Z" style="opacity: 1; stroke-width: 0px; fill: rgb(139, 0, 0); fill-opacity: 1;"/><path class="point" transform="translate(184.34,543.5)" d="M5,0A5,5 0 1,1 0,-5A5,5 0 0,1 5,0Z" style="opacity: 1; stroke-width: 0px; fill: rgb(139, 0, 0); fill-opacity: 1;"/><path class="point" transform="translate(196.72,538.06)" d="M5,0A5,5 0 1,1 0,-5A5,5 0 0,1 5,0Z" style="opacity: 1; stroke-width: 0px; fill: rgb(139, 0, 0); fill-opacity: 1;"/><path class="point" transform="translate(209.1,532.63)" d="M5,0A5,5 0 1,1 0,-5A5,5 0 0,1 5,0Z" style="opacity: 1; stroke-width: 0px; fill: rgb(139, 0, 0); fill-opacity: 1;"/><path class="point" transform="translate(221.47,521.75)" d="M5,0A5,5 0 1,1 0,-5A5,5 0 0,1 5,0Z" style="opacity: 1; stroke-width: 0px; fill: rgb(139, 0, 0); fill-opacity: 1;"/><path class="point" transform="translate(233.85,511.78)" d="M5,0A5,5 0 1,1 0,-5A5,5 0 0,1 5,0Z" style="opacity: 1; stroke-width: 0px; fill: rgb(139, 0, 0); fill-opacity: 1;"/><path class="point" transform="translate(246.23,488.21)" d="M5,0A5,5 0 1,1 0,-5A5,5 0 0,1 5,0Z" style="opacity: 1; stroke-width: 0px; fill: rgb(139, 0, 0); fill-opacity: 1;"/><path class="point" transform="translate(258.6,455.58)" d="M5,0A5,5 0 1,1 0,-5A5,5 0 0,1 5,0Z" style="opacity: 1; stroke-width: 0px; fill: rgb(139, 0, 0); fill-opacity: 1;"/><path class="point" transform="translate(270.98,428.39)" d="M5,0A5,5 0 1,1 0,-5A5,5 0 0,1 5,0Z" style="opacity: 1; stroke-width: 0px; fill: rgb(139, 0, 0); fill-opacity: 1;"/><path class="point" transform="translate(283.36,418.42)" d="M5,0A5,5 0 1,1 0,-5A5,5 0 0,1 5,0Z" style="opacity: 1; stroke-width: 0px; fill: rgb(139, 0, 0); fill-opacity: 1;"/><path class="point" transform="translate(295.73,361.31)" d="M5,0A5,5 0 1,1 0,-5A5,5 0 0,1 5,0Z" style="opacity: 1; stroke-width: 0px; fill: rgb(139, 0, 0); fill-opacity: 1;"/><path class="point" transform="translate(308.11,334.12)" d="M5,0A5,5 0 1,1 0,-5A5,5 0 0,1 5,0Z" style="opacity: 1; stroke-width: 0px; fill: rgb(139, 0, 0); fill-opacity: 1;"/><path class="point" transform="translate(320.49,257.98)" d="M5,0A5,5 0 1,1 0,-5A5,5 0 0,1 5,0Z" style="opacity: 1; stroke-width: 0px; fill: rgb(139, 0, 0); fill-opacity: 1;"/><path class="point" transform="translate(332.86,237.13)" d="M5,0A5,5 0 1,1 0,-5A5,5 0 0,1 5,0Z" style="opacity: 1; stroke-width: 0px; fill: rgb(139, 0, 0); fill-opacity: 1;"/><path class="point" transform="translate(345.24,213.56)" d="M5,0A5,5 0 1,1 0,-5A5,5 0 0,1 5,0Z" style="opacity: 1; stroke-width: 0px; fill: rgb(139, 0, 0); fill-opacity: 1;"/><path class="point" transform="translate(357.62,153.74)" d="M5,0A5,5 0 1,1 0,-5A5,5 0 0,1 5,0Z" style="opacity: 1; stroke-width: 0px; fill: rgb(139, 0, 0); fill-opacity: 1;"/><path class="point" transform="translate(369.99,129.26)" d="M5,0A5,5 0 1,1 0,-5A5,5 0 0,1 5,0Z" style="opacity: 1; stroke-width: 0px; fill: rgb(139, 0, 0); fill-opacity: 1;"/><path class="point" transform="translate(382.37,79.41)" d="M5,0A5,5 0 1,1 0,-5A5,5 0 0,1 5,0Z" style="opacity: 1; stroke-width: 0px; fill: rgb(139, 0, 0); fill-opacity: 1;"/><path class="point" transform="translate(394.75,35.9)" d="M5,0A5,5 0 1,1 0,-5A5,5 0 0,1 5,0Z" style="opacity: 1; stroke-width: 0px; fill: rgb(139, 0, 0); fill-opacity: 1;"/><path class="point" transform="translate(407.12,65.81)" d="M5,0A5,5 0 1,1 0,-5A5,5 0 0,1 5,0Z" style="opacity: 1; stroke-width: 0px; fill: rgb(139, 0, 0); fill-opacity: 1;"/><path class="point" transform="translate(419.5,64.91)" d="M5,0A5,5 0 1,1 0,-5A5,5 0 0,1 5,0Z" style="opacity: 1; stroke-width: 0px; fill: rgb(139, 0, 0); fill-opacity: 1;"/><path class="point" transform="translate(431.88,36.81)" d="M5,0A5,5 0 1,1 0,-5A5,5 0 0,1 5,0Z" style="opacity: 1; stroke-width: 0px; fill: rgb(139, 0, 0); fill-opacity: 1;"/><path class="point" transform="translate(444.25,55.84)" d="M5,0A5,5 0 1,1 0,-5A5,5 0 0,1 5,0Z" style="opacity: 1; stroke-width: 0px; fill: rgb(139, 0, 0); fill-opacity: 1;"/><path class="point" transform="translate(456.63,58.56)" d="M5,0A5,5 0 1,1 0,-5A5,5 0 0,1 5,0Z" style="opacity: 1; stroke-width: 0px; fill: rgb(139, 0, 0); fill-opacity: 1;"/><path class="point" transform="translate(469.01,149.2)" d="M5,0A5,5 0 1,1 0,-5A5,5 0 0,1 5,0Z" style="opacity: 1; stroke-width: 0px; fill: rgb(139, 0, 0); fill-opacity: 1;"/><path class="point" transform="translate(481.38,148.3)" d="M5,0A5,5 0 1,1 0,-5A5,5 0 0,1 5,0Z" style="opacity: 1; stroke-width: 0px; fill: rgb(139, 0, 0); fill-opacity: 1;"/><path class="point" transform="translate(493.76,180.93)" d="M5,0A5,5 0 1,1 0,-5A5,5 0 0,1 5,0Z" style="opacity: 1; stroke-width: 0px; fill: rgb(139, 0, 0); fill-opacity: 1;"/><path class="point" transform="translate(506.14,266.13)" d="M5,0A5,5 0 1,1 0,-5A5,5 0 0,1 5,0Z" style="opacity: 1; stroke-width: 0px; fill: rgb(139, 0, 0); fill-opacity: 1;"/><path class="point" transform="translate(518.51,296.05)" d="M5,0A5,5 0 1,1 0,-5A5,5 0 0,1 5,0Z" style="opacity: 1; stroke-width: 0px; fill: rgb(139, 0, 0); fill-opacity: 1;"/><path class="point" transform="translate(530.89,345.9)" d="M5,0A5,5 0 1,1 0,-5A5,5 0 0,1 5,0Z" style="opacity: 1; stroke-width: 0px; fill: rgb(139, 0, 0); fill-opacity: 1;"/><path class="point" transform="translate(543.27,375.81)" d="M5,0A5,5 0 1,1 0,-5A5,5 0 0,1 5,0Z" style="opacity: 1; stroke-width: 0px; fill: rgb(139, 0, 0); fill-opacity: 1;"/><path class="point" transform="translate(555.64,403.01)" d="M5,0A5,5 0 1,1 0,-5A5,5 0 0,1 5,0Z" style="opacity: 1; stroke-width: 0px; fill: rgb(139, 0, 0); fill-opacity: 1;"/><path class="point" transform="translate(568.02,431.11)" d="M5,0A5,5 0 1,1 0,-5A5,5 0 0,1 5,0Z" style="opacity: 1; stroke-width: 0px; fill: rgb(139, 0, 0); fill-opacity: 1;"/><path class="point" transform="translate(580.4,461.02)" d="M5,0A5,5 0 1,1 0,-5A5,5 0 0,1 5,0Z" style="opacity: 1; stroke-width: 0px; fill: rgb(139, 0, 0); fill-opacity: 1;"/><path class="point" transform="translate(592.77,480.96)" d="M5,0A5,5 0 1,1 0,-5A5,5 0 0,1 5,0Z" style="opacity: 1; stroke-width: 0px; fill: rgb(139, 0, 0); fill-opacity: 1;"/><path class="point" transform="translate(605.15,503.62)" d="M5,0A5,5 0 1,1 0,-5A5,5 0 0,1 5,0Z" style="opacity: 1; stroke-width: 0px; fill: rgb(139, 0, 0); fill-opacity: 1;"/><path class="point" transform="translate(617.53,519.94)" d="M5,0A5,5 0 1,1 0,-5A5,5 0 0,1 5,0Z" style="opacity: 1; stroke-width: 0px; fill: rgb(139, 0, 0); fill-opacity: 1;"/><path class="point" transform="translate(629.9,523.56)" d="M5,0A5,5 0 1,1 0,-5A5,5 0 0,1 5,0Z" style="opacity: 1; stroke-width: 0px; fill: rgb(139, 0, 0); fill-opacity: 1;"/><path class="point" transform="translate(642.28,544.41)" d="M5,0A5,5 0 1,1 0,-5A5,5 0 0,1 5,0Z" style="opacity: 1; stroke-width: 0px; fill: rgb(139, 0, 0); fill-opacity: 1;"/><path class="point" transform="translate(654.66,547.13)" d="M5,0A5,5 0 1,1 0,-5A5,5 0 0,1 5,0Z" style="opacity: 1; stroke-width: 0px; fill: rgb(139, 0, 0); fill-opacity: 1;"/><path class="point" transform="translate(667.03,552.57)" d="M5,0A5,5 0 1,1 0,-5A5,5 0 0,1 5,0Z" style="opacity: 1; stroke-width: 0px; fill: rgb(139, 0, 0); fill-opacity: 1;"/><path class="point" transform="translate(679.41,552.57)" d="M5,0A5,5 0 1,1 0,-5A5,5 0 0,1 5,0Z" style="opacity: 1; stroke-width: 0px; fill: rgb(139, 0, 0); fill-opacity: 1;"/><path class="point" transform="translate(691.79,555.29)" d="M5,0A5,5 0 1,1 0,-5A5,5 0 0,1 5,0Z" style="opacity: 1; stroke-width: 0px; fill: rgb(139, 0, 0); fill-opacity: 1;"/><path class="point" transform="translate(704.16,557.1)" d="M5,0A5,5 0 1,1 0,-5A5,5 0 0,1 5,0Z" style="opacity: 1; stroke-width: 0px; fill: rgb(139, 0, 0); fill-opacity: 1;"/><path class="point" transform="translate(716.54,556.19)" d="M5,0A5,5 0 1,1 0,-5A5,5 0 0,1 5,0Z" style="opacity: 1; stroke-width: 0px; fill: rgb(139, 0, 0); fill-opacity: 1;"/><path class="point" transform="translate(728.92,554.38)" d="M5,0A5,5 0 1,1 0,-5A5,5 0 0,1 5,0Z" style="opacity: 1; stroke-width: 0px; fill: rgb(139, 0, 0); fill-opacity: 1;"/><path class="point" transform="translate(741.29,555.29)" d="M5,0A5,5 0 1,1 0,-5A5,5 0 0,1 5,0Z" style="opacity: 1; stroke-width: 0px; fill: rgb(139, 0, 0); fill-opacity: 1;"/><path class="point" transform="translate(753.67,557.1)" d="M5,0A5,5 0 1,1 0,-5A5,5 0 0,1 5,0Z" style="opacity: 1; stroke-width: 0px; fill: rgb(139, 0, 0); fill-opacity: 1;"/><path class="point" transform="translate(766.05,557.1)" d="M5,0A5,5 0 1,1 0,-5A5,5 0 0,1 5,0Z" style="opacity: 1; stroke-width: 0px; fill: rgb(139, 0, 0); fill-opacity: 1;"/><path class="point" transform="translate(778.42,557.1)" d="M5,0A5,5 0 1,1 0,-5A5,5 0 0,1 5,0Z" style="opacity: 1; stroke-width: 0px; fill: rgb(139, 0, 0); fill-opacity: 1;"/><path class="point" transform="translate(790.8,556.19)" d="M5,0A5,5 0 1,1 0,-5A5,5 0 0,1 5,0Z" style="opacity: 1; stroke-width: 0px; fill: rgb(139, 0, 0); fill-opacity: 1;"/></g><g class="text"/></g></g></g><g class="overplot"/><path class="xlines-above crisp" d="M105,693h839" style="fill: none; stroke-width: 4px; stroke: rgb(0, 0, 0); stroke-opacity: 1;"/><path class="ylines-above crisp" d="M105,100v593" style="fill: none; stroke-width: 4px; stroke: rgb(0, 0, 0); stroke-opacity: 1;"/><g class="overlines-above"/><g class="xaxislayer-above"><path class="xtick ticks crisp" d="M0,695v6" transform="translate(153.2,0)" style="stroke: rgb(0, 0, 0); stroke-opacity: 1; stroke-width: 3px;"/><path class="xtick ticks crisp" d="M0,695v6" transform="translate(276.97,0)" style="stroke: rgb(0, 0, 0); stroke-opacity: 1; stroke-width: 3px;"/><path class="xtick ticks crisp" d="M0,695v6" transform="translate(400.73,0)" style="stroke: rgb(0, 0, 0); stroke-opacity: 1; stroke-width: 3px;"/><path class="xtick ticks crisp" d="M0,695v6" transform="translate(524.5,0)" style="stroke: rgb(0, 0, 0); stroke-opacity: 1; stroke-width: 3px;"/><path class="xtick ticks crisp" d="M0,695v6" transform="translate(648.27,0)" style="stroke: rgb(0, 0, 0); stroke-opacity: 1; stroke-width: 3px;"/><path class="xtick ticks crisp" d="M0,695v6" transform="translate(772.03,0)" style="stroke: rgb(0, 0, 0); stroke-opacity: 1; stroke-width: 3px;"/><path class="xtick ticks crisp" d="M0,695v6" transform="translate(895.8,0)" style="stroke: rgb(0, 0, 0); stroke-opacity: 1; stroke-width: 3px;"/><g class="xtick"><text text-anchor="middle" x="0" y="731" transform="translate(153.2,0)" style="font-family: 'Open Sans', verdana, arial, sans-serif; font-size: 25px; fill: rgb(0, 0, 0); fill-opacity: 1; white-space: pre;">−6</text></g><g class="xtick"><text text-anchor="middle" x="0" y="731" transform="translate(276.97,0)" style="font-family: 'Open Sans', verdana, arial, sans-serif; font-size: 25px; fill: rgb(0, 0, 0); fill-opacity: 1; white-space: pre;">−4</text></g><g class="xtick"><text text-anchor="middle" x="0" y="731" transform="translate(400.73,0)" style="font-family: 'Open Sans', verdana, arial, sans-serif; font-size: 25px; fill: rgb(0, 0, 0); fill-opacity: 1; white-space: pre;">−2</text></g><g class="xtick"><text text-anchor="middle" x="0" y="731" transform="translate(524.5,0)" style="font-family: 'Open Sans', verdana, arial, sans-serif; font-size: 25px; fill: rgb(0, 0, 0); fill-opacity: 1; white-space: pre;">0</text></g><g class="xtick"><text text-anchor="middle" x="0" y="731" transform="translate(648.27,0)" style="font-family: 'Open Sans', verdana, arial, sans-serif; font-size: 25px; fill: rgb(0, 0, 0); fill-opacity: 1; white-space: pre;">2</text></g><g class="xtick"><text text-anchor="middle" x="0" y="731" transform="translate(772.03,0)" style="font-family: 'Open Sans', verdana, arial, sans-serif; font-size: 25px; fill: rgb(0, 0, 0); fill-opacity: 1; white-space: pre;">4</text></g><g class="xtick"><text text-anchor="middle" x="0" y="731" transform="translate(895.8,0)" style="font-family: 'Open Sans', verdana, arial, sans-serif; font-size: 25px; fill: rgb(0, 0, 0); fill-opacity: 1; white-space: pre;">6</text></g></g><g class="yaxislayer-above"><path class="ytick ticks crisp" d="M103,0h-6" transform="translate(0,657.1)" style="stroke: rgb(0, 0, 0); stroke-opacity: 1; stroke-width: 3px;"/><path class="ytick ticks crisp" d="M103,0h-6" transform="translate(0,566.46)" style="stroke: rgb(0, 0, 0); stroke-opacity: 1; stroke-width: 3px;"/><path class="ytick ticks crisp" d="M103,0h-6" transform="translate(0,475.81)" style="stroke: rgb(0, 0, 0); stroke-opacity: 1; stroke-width: 3px;"/><path class="ytick ticks crisp" d="M103,0h-6" transform="translate(0,385.17)" style="stroke: rgb(0, 0, 0); stroke-opacity: 1; stroke-width: 3px;"/><path class="ytick ticks crisp" d="M103,0h-6" transform="translate(0,294.53)" style="stroke: rgb(0, 0, 0); stroke-opacity: 1; stroke-width: 3px;"/><path class="ytick ticks crisp" d="M103,0h-6" transform="translate(0,203.88)" style="stroke: rgb(0, 0, 0); stroke-opacity: 1; stroke-width: 3px;"/><path class="ytick ticks crisp" d="M103,0h-6" transform="translate(0,113.24)" style="stroke: rgb(0, 0, 0); stroke-opacity: 1; stroke-width: 3px;"/><g class="ytick"><text text-anchor="middle" x="74.5" y="8.75" transform="translate(0,657.1) rotate(-90,74.5,-3.75)" style="font-family: 'Open Sans', verdana, arial, sans-serif; font-size: 25px; fill: rgb(0, 0, 0); fill-opacity: 1; white-space: pre;">0</text></g><g class="ytick"><text text-anchor="middle" x="74.5" y="8.75" transform="translate(0,566.46) rotate(-90,74.5,-3.75)" style="font-family: 'Open Sans', verdana, arial, sans-serif; font-size: 25px; fill: rgb(0, 0, 0); fill-opacity: 1; white-space: pre;">500</text></g><g class="ytick"><text text-anchor="middle" x="74.5" y="8.75" transform="translate(0,475.81) rotate(-90,74.5,-3.75)" style="font-family: 'Open Sans', verdana, arial, sans-serif; font-size: 25px; fill: rgb(0, 0, 0); fill-opacity: 1; white-space: pre;">1000</text></g><g class="ytick"><text text-anchor="middle" x="74.5" y="8.75" transform="translate(0,385.17) rotate(-90,74.5,-3.75)" style="font-family: 'Open Sans', verdana, arial, sans-serif; font-size: 25px; fill: rgb(0, 0, 0); fill-opacity: 1; white-space: pre;">1500</text></g><g class="ytick"><text text-anchor="middle" x="74.5" y="8.75" transform="translate(0,294.53) rotate(-90,74.5,-3.75)" style="font-family: 'Open Sans', verdana, arial, sans-serif; font-size: 25px; fill: rgb(0, 0, 0); fill-opacity: 1; white-space: pre;">2000</text></g><g class="ytick"><text text-anchor="middle" x="74.5" y="8.75" transform="translate(0,203.88) rotate(-90,74.5,-3.75)" style="font-family: 'Open Sans', verdana, arial, sans-serif; font-size: 25px; fill: rgb(0, 0, 0); fill-opacity: 1; white-space: pre;">2500</text></g><g class="ytick"><text text-anchor="middle" x="74.5" y="8.75" transform="translate(0,113.24) rotate(-90,74.5,-3.75)" style="font-family: 'Open Sans', verdana, arial, sans-serif; font-size: 25px; fill: rgb(0, 0, 0); fill-opacity: 1; white-space: pre;">3000</text></g></g><g class="overaxes-above"/></g></g><g class="polarlayer"/><g class="ternarylayer"/><g class="geolayer"/><g class="funnelarealayer"/><g class="pielayer"/><g class="treemaplayer"/><g class="sunburstlayer"/><g class="glimages"/><defs id="topdefs-d256f9"><g class="clips"/><clipPath id="legendd256f9"><rect width="130" height="81" x="3" y="3"/></clipPath></defs><g class="layer-above"><g class="imagelayer"/><g class="shapelayer"><path data-index="0" fill-rule="evenodd" d="M105,100L944,100" style="opacity: 1; stroke: rgb(0, 0, 0); stroke-opacity: 1; fill: rgb(0, 0, 0); fill-opacity: 0; stroke-width: 4px;"/><path data-index="1" fill-rule="evenodd" d="M944,693L944,100" style="opacity: 1; stroke: rgb(0, 0, 0); stroke-opacity: 1; fill: rgb(0, 0, 0); fill-opacity: 0; stroke-width: 4px;"/></g></g><g class="infolayer"><g class="legend" pointer-events="all" transform="translate(799.61,107.88689999999998)"><rect class="bg" shape-rendering="crispEdges" style="stroke: rgb(0, 0, 0); stroke-opacity: 1; fill: rgb(255, 255, 255); fill-opacity: 1; stroke-width: 3px;" width="133" height="84" x="1.5" y="1.5"/><g class="scrollbox" transform="" clip-path="url('#legendd256f9')"><g class="groups"><g class="traces" transform="translate(3,25.75)" style="opacity: 1;"><text class="legendtext" text-anchor="start" x="62" y="9.75" style="font-family: serif; font-size: 25px; fill: rgb(0, 0, 0); fill-opacity: 1; white-space: pre;">Diff.  </text><g class="layers" style="opacity: 1;"><g class="legendfill"/><g class="legendlines"><path class="js-line" d="M5,0h52" style="fill: none; stroke: rgb(0, 0, 139); stroke-opacity: 1; stroke-width: 3px;"/></g><g class="legendsymbols"><g class="legendpoints"/></g></g><rect class="legendtoggle" x="0" y="-17.75" width="125" height="35.5" style="fill: rgb(0, 0, 0); fill-opacity: 0;"/></g><g class="traces" transform="translate(3,61.25)" style="opacity: 1;"><text class="legendtext" text-anchor="start" x="62" y="9.75" style="font-family: serif; font-size: 25px; fill: rgb(0, 0, 0); fill-opacity: 1; white-space: pre;">R.W.  </text><g class="layers" style="opacity: 1;"><g class="legendfill"/><g class="legendlines"/><g class="legendsymbols"><g class="legendpoints"><path class="scatterpts" transform="translate(31,0)" d="M5,0A5,5 0 1,1 0,-5A5,5 0 0,1 5,0Z" style="opacity: 1; stroke-width: 0px; fill: rgb(139, 0, 0); fill-opacity: 1;"/></g></g></g><rect class="legendtoggle" x="0" y="-17.75" width="125" height="35.5" style="fill: rgb(0, 0, 0); fill-opacity: 0;"/></g></g></g><rect class="scrollbar" rx="20" ry="3" width="0" height="0" style="fill: rgb(128, 139, 164); fill-opacity: 1;" x="0" y="0"/></g><g class="g-gtitle"><text class="gtitle" x="512" y="50" text-anchor="middle" dy="0em" style="font-family: serif; font-size: 35px; fill: rgb(0, 0, 0); opacity: 1; font-weight: normal; white-space: pre;">Diffusion / random walk</text></g><g class="g-xtitle" transform="translate(0,-34)"><text class="xtitle" x="524.5" y="796" text-anchor="middle" style="font-family: serif; font-size: 30px; fill: rgb(0, 0, 0); opacity: 1; font-weight: normal; white-space: pre;">x. a.u.</text></g><g class="g-ytitle"><text class="ytitle" transform="rotate(-90,32,396.5)" x="32" y="396.5" text-anchor="middle" style="font-family: serif; font-size: 30px; fill: rgb(0, 0, 0); opacity: 1; font-weight: normal; white-space: pre;">Number of particles</text></g></g></svg>