<svg class="main-svg" xmlns="http://www.w3.org/2000/svg" xmlns:xlink="http://www.w3.org/1999/xlink" width="1280" height="960" style="" viewBox="0 0 1280 960"><rect x="0" y="0" width="1280" height="960" style="fill: rgb(255, 255, 255); fill-opacity: 1;"/><defs id="defs-48a8e5"><g class="clips"><clipPath id="clip48a8e5xyplot" class="plotclip"><rect width="1095" height="755"/></clipPath><clipPath class="axesclip" id="clip48a8e5x"><rect x="105" y="0" width="1095" height="960"/></clipPath><clipPath class="axesclip" id="clip48a8e5y"><rect x="0" y="100" width="1280" height="755"/></clipPath><clipPath class="axesclip" id="clip48a8e5xy"><rect x="105" y="100" width="1095" height="755"/></clipPath></g><g class="gradients"/></defs><g class="bglayer"><rect class="bg" x="105" y="100" width="1095" height="755" style="fill: rgb(0, 0, 0); fill-opacity: 0; stroke-width: 0;"/></g><g class="layer-below"><g class="imagelayer"/><g class="shapelayer"/></g><g class="cartesianlayer"><g class="subplot xy"><g class="layer-subplot"><g class="shapelayer"/><g class="imagelayer"/></g><g class="gridlayer"><g class="x"><path class="xgrid crisp" transform="translate(166,0)" d="M0,100v755" style="stroke: rgb(180, 180, 180); stroke-opacity: 1; stroke-width: 1px;"/><path class="xgrid crisp" transform="translate(328.16999999999996,0)" d="M0,100v755" style="stroke: rgb(180, 180, 180); stroke-opacity: 1; stroke-width: 1px;"/><path class="xgrid crisp" transform="translate(490.33,0)" d="M0,100v755" style="stroke: rgb(180, 180, 180); stroke-opacity: 1; stroke-width: 1px;"/><path class="xgrid crisp" transform="translate(652.5,0)" d="M0,100v755" style="stroke: rgb(180, 180, 180); stroke-opacity: 1; stroke-width: 1px;"/><path class="xgrid crisp" transform="translate(814.67,0)" d="M0,100v755" style="stroke: rgb(180, 180, 180); stroke-opacity: 1; stroke-width: 1px;"/><path class="xgrid crisp" transform="translate(976.83,0)" d="M0,100v755" style="stroke: rgb(180, 180, 180); stroke-opacity: 1; stroke-width: 1px;"/><path class="xgrid crisp" transform="translate(1139,0)" d="M0,100v755" style="stroke: rgb(180, 180, 180); stroke-opacity: 1; stroke-width: 1px;"/></g><g class="y"><path class="ygrid crisp" transform="translate(0,811)" d="M105,0h1095" style="stroke: rgb(180, 180, 180); stroke-opacity: 1; stroke-width: 1px;"/><path class="ygrid crisp" transform="translate(0,695)" d="M105,0h1095" style="stroke: rgb(180, 180, 180); stroke-opacity: 1; stroke-width: 1px;"/><path class="ygrid crisp" transform="translate(0,579)" d="M105,0h1095" style="stroke: rgb(180, 180, 180); stroke-opacity: 1; stroke-width: 1px;"/><path class="ygrid crisp" transform="translate(0,463)" d="M105,0h1095" style="stroke: rgb(180, 180, 180); stroke-opacity: 1; stroke-width: 1px;"/><path class="ygrid crisp" transform="translate(0,347)" d="M105,0h1095" style="stroke: rgb(180, 180, 180); stroke-opacity: 1; stroke-width: 1px;"/><path class="ygrid crisp" transform="translate(0,231)" d="M105,0h1095" style="stroke: rgb(180, 180, 180); stroke-opacity: 1; stroke-width: 1px;"/><path class="ygrid crisp" transform="translate(0,115)" d="M105,0h1095" style="stroke: rgb(180, 180, 180); stroke-opacity: 1; stroke-width: 1px;"/></g></g><g class="zerolinelayer"/><path class="xlines-below"/><path class="ylines-below"/><g class="overlines-below"/><g class="xaxislayer-below"/><g class="yaxislayer-below"/><g class="overaxes-below"/><g class="plot" transform="translate(105,100)" clip-path="url('#clip48a8e5xyplot')"><g class="scatterlayer mlayer"><g class="trace scatter trace5495c4" style="stroke-miterlimit: 2; opacity: 1;"><g class="fills"/><g class="errorbars"/><g class="lines"><path class="js-line" d="M61,710.92L133.98,710.02L142.08,709.74L174.52,707.7L182.63,706.86L206.95,703.04L215.06,701.21L231.28,696.4L239.38,693.3L255.6,685.37L263.71,680.39L279.93,668L288.03,660.41L296.14,651.78L304.25,642.02L312.36,631.06L320.47,618.81L336.68,590.24L344.79,573.82L361.01,536.61L369.12,515.84L385.33,470.24L393.44,445.58L409.66,393.24L417.77,365.91L458.31,227.37L466.42,201.31L482.63,153.31L490.74,132L498.85,112.87L506.96,96.19L515.07,82.2L523.17,71.1L531.28,63.05L539.39,58.17L547.5,56.54L555.61,58.17L563.72,63.05L571.83,71.1L579.93,82.2L588.04,96.19L596.15,112.87L604.26,132L620.48,176.51L628.58,201.31L644.8,254.4L652.91,282.06L693.45,419.86L701.56,445.58L717.78,493.69L725.88,515.84L742.1,555.94L750.21,573.82L766.43,605.23L774.53,618.81L790.75,642.02L798.86,651.78L815.08,668L823.18,674.63L839.4,685.37L847.51,689.64L863.72,696.4L871.83,699.01L888.05,703.04L896.16,704.57L920.48,707.7L928.59,708.38L961.02,710.02L969.13,710.24L1025.89,710.89L1034,710.92" style="vector-effect: non-scaling-stroke; fill: none; stroke: rgb(0, 0, 139); stroke-opacity: 1; stroke-width: 3px; opacity: 1;"/></g><g class="points"/><g class="text"/></g><g class="trace scatter trace30fc6e" style="stroke-miterlimit: 2; opacity: 1;"><g class="fills"/><g class="errorbars"/><g class="lines"/><g class="points"><path class="point" transform="translate(61,711)" d="M5,0A5,5 0 1,1 0,-5A5,5 0 0,1 5,0Z" style="opacity: 1; stroke-width: 0px; fill: rgb(139, 0, 0); fill-opacity: 1;"/><path class="point" transform="translate(77.22,709.84)" d="M5,0A5,5 0 1,1 0,-5A5,5 0 0,1 5,0Z" style="opacity: 1; stroke-width: 0px; fill: rgb(139, 0, 0); fill-opacity: 1;"/><path class="point" transform="translate(93.43,711)" d="M5,0A5,5 0 1,1 0,-5A5,5 0 0,1 5,0Z" style="opacity: 1; stroke-width: 0px; fill: rgb(139, 0, 0); fill-opacity: 1;"/><path class="point" transform="translate(109.65,711)" d="M5,0A5,5 0 1,1 0,-5A5,5 0 0,1 5,0Z" style="opacity: 1; stroke-width: 0px; fill: rgb(139, 0, 0); fill-opacity: 1;"/><path class="point" transform="translate(125.87,711)" d="M5,0A5,5 0 1,1 0,-5A5,5 0 0,1 5,0Z" style="opacity: 1; stroke-width: 0px; fill: rgb(139, 0, 0); fill-opacity: 1;"/><path class="point" transform="translate(142.08,711)" d="M5,0A5,5 0 1,1 0,-5A5,5 0 0,1 5,0Z" style="opacity: 1; stroke-width: 0px; fill: rgb(139, 0, 0); fill-opacity: 1;"/><path class="point" transform="translate(158.3,709.84)" d="M5,0A5,5 0 1,1 0,-5A5,5 0 0,1 5,0Z" style="opacity: 1; stroke-width: 0px; fill: rgb(139, 0, 0); fill-opacity: 1;"/><path class="point" transform="translate(174.52,706.36)" d="M5,0A5,5 0 1,1 0,-5A5,5 0 0,1 5,0Z" style="opacity: 1; stroke-width: 0px; fill: rgb(139, 0, 0); fill-opacity: 1;"/><path class="point" transform="translate(190.73,709.84)" d="M5,0A5,5 0 1,1 0,-5A5,5 0 0,1 5,0Z" style="opacity: 1; stroke-width: 0px; fill: rgb(139, 0, 0); fill-opacity: 1;"/><path class="point" transform="translate(206.95,705.2)" d="M5,0A5,5 0 1,1 0,-5A5,5 0 0,1 5,0Z" style="opacity: 1; stroke-width: 0px; fill: rgb(139, 0, 0); fill-opacity: 1;"/><path class="point" transform="translate(223.17,699.4)" d="M5,0A5,5 0 1,1 0,-5A5,5 0 0,1 5,0Z" style="opacity: 1; stroke-width: 0px; fill: rgb(139, 0, 0); fill-opacity: 1;"/><path class="point" transform="translate(239.38,693.6)" d="M5,0A5,5 0 1,1 0,-5A5,5 0 0,1 5,0Z" style="opacity: 1; stroke-width: 0px; fill: rgb(139, 0, 0); fill-opacity: 1;"/><path class="point" transform="translate(255.6,686.64)" d="M5,0A5,5 0 1,1 0,-5A5,5 0 0,1 5,0Z" style="opacity: 1; stroke-width: 0px; fill: rgb(139, 0, 0); fill-opacity: 1;"/><path class="point" transform="translate(271.82,679.68)" d="M5,0A5,5 0 1,1 0,-5A5,5 0 0,1 5,0Z" style="opacity: 1; stroke-width: 0px; fill: rgb(139, 0, 0); fill-opacity: 1;"/><path class="point" transform="translate(288.03,665.76)" d="M5,0A5,5 0 1,1 0,-5A5,5 0 0,1 5,0Z" style="opacity: 1; stroke-width: 0px; fill: rgb(139, 0, 0); fill-opacity: 1;"/><path class="point" transform="translate(304.25,653)" d="M5,0A5,5 0 1,1 0,-5A5,5 0 0,1 5,0Z" style="opacity: 1; stroke-width: 0px; fill: rgb(139, 0, 0); fill-opacity: 1;"/><path class="point" transform="translate(320.47,622.84)" d="M5,0A5,5 0 1,1 0,-5A5,5 0 0,1 5,0Z" style="opacity: 1; stroke-width: 0px; fill: rgb(139, 0, 0); fill-opacity: 1;"/><path class="point" transform="translate(336.68,581.08)" d="M5,0A5,5 0 1,1 0,-5A5,5 0 0,1 5,0Z" style="opacity: 1; stroke-width: 0px; fill: rgb(139, 0, 0); fill-opacity: 1;"/><path class="point" transform="translate(352.9,546.28)" d="M5,0A5,5 0 1,1 0,-5A5,5 0 0,1 5,0Z" style="opacity: 1; stroke-width: 0px; fill: rgb(139, 0, 0); fill-opacity: 1;"/><path class="point" transform="translate(369.12,533.52)" d="M5,0A5,5 0 1,1 0,-5A5,5 0 0,1 5,0Z" style="opacity: 1; stroke-width: 0px; fill: rgb(139, 0, 0); fill-opacity: 1;"/><path class="point" transform="translate(385.33,460.44)" d="M5,0A5,5 0 1,1 0,-5A5,5 0 0,1 5,0Z" style="opacity: 1; stroke-width: 0px; fill: rgb(139, 0, 0); fill-opacity: 1;"/><path class="point" transform="translate(401.55,425.64)" d="M5,0A5,5 0 1,1 0,-5A5,5 0 0,1 5,0Z" style="opacity: 1; stroke-width: 0px; fill: rgb(139, 0, 0); fill-opacity: 1;"/><path class="point" transform="translate(417.77,328.2)" d="M5,0A5,5 0 1,1 0,-5A5,5 0 0,1 5,0Z" style="opacity: 1; stroke-width: 0px; fill: rgb(139, 0, 0); fill-opacity: 1;"/><path class="point" transform="translate(433.98,301.52)" d="M5,0A5,5 0 1,1 0,-5A5,5 0 0,1 5,0Z" style="opacity: 1; stroke-width: 0px; fill: rgb(139, 0, 0); fill-opacity: 1;"/><path class="point" transform="translate(450.2,271.36)" d="M5,0A5,5 0 1,1 0,-5A5,5 0 0,1 5,0Z" style="opacity: 1; stroke-width: 0px; fill: rgb(139, 0, 0); fill-opacity: 1;"/><path class="point" transform="translate(466.42,194.8)" d="M5,0A5,5 0 1,1 0,-5A5,5 0 0,1 5,0Z" style="opacity: 1; stroke-width: 0px; fill: rgb(139, 0, 0); fill-opacity: 1;"/><path class="point" transform="translate(482.63,163.48)" d="M5,0A5,5 0 1,1 0,-5A5,5 0 0,1 5,0Z" style="opacity: 1; stroke-width: 0px; fill: rgb(139, 0, 0); fill-opacity: 1;"/><path class="point" transform="translate(498.85,99.68)" d="M5,0A5,5 0 1,1 0,-5A5,5 0 0,1 5,0Z" style="opacity: 1; stroke-width: 0px; fill: rgb(139, 0, 0); fill-opacity: 1;"/><path class="point" transform="translate(515.07,44)" d="M5,0A5,5 0 1,1 0,-5A5,5 0 0,1 5,0Z" style="opacity: 1; stroke-width: 0px; fill: rgb(139, 0, 0); fill-opacity: 1;"/><path class="point" transform="translate(531.28,82.28)" d="M5,0A5,5 0 1,1 0,-5A5,5 0 0,1 5,0Z" style="opacity: 1; stroke-width: 0px; fill: rgb(139, 0, 0); fill-opacity: 1;"/><path class="point" transform="translate(547.5,81.12)" d="M5,0A5,5 0 1,1 0,-5A5,5 0 0,1 5,0Z" style="opacity: 1; stroke-width: 0px; fill: rgb(139, 0, 0); fill-opacity: 1;"/><path class="point" transform="translate(563.72,45.16)" d="M5,0A5,5 0 1,1 0,-5A5,5 0 0,1 5,0Z" style="opacity: 1; stroke-width: 0px; fill: rgb(139, 0, 0); fill-opacity: 1;"/><path class="point" transform="translate(579.93,69.52)" d="M5,0A5,5 0 1,1 0,-5A5,5 0 0,1 5,0Z" style="opacity: 1; stroke-width: 0px; fill: rgb(139, 0, 0); fill-opacity: 1;"/><path class="point" transform="translate(596.15,73)" d="M5,0A5,5 0 1,1 0,-5A5,5 0 0,1 5,0Z" style="opacity: 1; stroke-width: 0px; fill: rgb(139, 0, 0); fill-opacity: 1;"/><path class="point" transform="translate(612.37,189)" d="M5,0A5,5 0 1,1 0,-5A5,5 0 0,1 5,0Z" style="opacity: 1; stroke-width: 0px; fill: rgb(139, 0, 0); fill-opacity: 1;"/><path class="point" transform="translate(628.58,187.84)" d="M5,0A5,5 0 1,1 0,-5A5,5 0 0,1 5,0Z" style="opacity: 1; stroke-width: 0px; fill: rgb(139, 0, 0); fill-opacity: 1;"/><path class="point" transform="translate(644.8,229.6)" d="M5,0A5,5 0 1,1 0,-5A5,5 0 0,1 5,0Z" style="opacity: 1; stroke-width: 0px; fill: rgb(139, 0, 0); fill-opacity: 1;"/><path class="point" transform="translate(661.02,338.64)" d="M5,0A5,5 0 1,1 0,-5A5,5 0 0,1 5,0Z" style="opacity: 1; stroke-width: 0px; fill: rgb(139, 0, 0); fill-opacity: 1;"/><path class="point" transform="translate(677.23,376.92)" d="M5,0A5,5 0 1,1 0,-5A5,5 0 0,1 5,0Z" style="opacity: 1; stroke-width: 0px; fill: rgb(139, 0, 0); fill-opacity: 1;"/><path class="point" transform="translate(693.45,440.72)" d="M5,0A5,5 0 1,1 0,-5A5,5 0 0,1 5,0Z" style="opacity: 1; stroke-width: 0px; fill: rgb(139, 0, 0); fill-opacity: 1;"/><path class="point" transform="translate(709.67,479)" d="M5,0A5,5 0 1,1 0,-5A5,5 0 0,1 5,0Z" style="opacity: 1; stroke-width: 0px; fill: rgb(139, 0, 0); fill-opacity: 1;"/><path class="point" transform="translate(725.88,513.8)" d="M5,0A5,5 0 1,1 0,-5A5,5 0 0,1 5,0Z" style="opacity: 1; stroke-width: 0px; fill: rgb(139, 0, 0); fill-opacity: 1;"/><path class="point" transform="translate(742.1,549.76)" d="M5,0A5,5 0 1,1 0,-5A5,5 0 0,1 5,0Z" style="opacity: 1; stroke-width: 0px; fill: rgb(139, 0, 0); fill-opacity: 1;"/><path class="point" transform="translate(758.32,588.04)" d="M5,0A5,5 0 1,1 0,-5A5,5 0 0,1 5,0Z" style="opacity: 1; stroke-width: 0px; fill: rgb(139, 0, 0); fill-opacity: 1;"/><path class="point" transform="translate(774.53,613.56)" d="M5,0A5,5 0 1,1 0,-5A5,5 0 0,1 5,0Z" style="opacity: 1; stroke-width: 0px; fill: rgb(139, 0, 0); fill-opacity: 1;"/><path class="point" transform="translate(790.75,642.56)" d="M5,0A5,5 0 1,1 0,-5A5,5 0 0,1 5,0Z" style="opacity: 1; stroke-width: 0px; fill: rgb(139, 0, 0); fill-opacity: 1;"/><path class="point" transform="translate(806.97,663.44)" d="M5,0A5,5 0 1,1 0,-5A5,5 0 0,1 5,0Z" style="opacity: 1; stroke-width: 0px; fill: rgb(139, 0, 0); fill-opacity: 1;"/><path class="point" transform="translate(823.18,668.08)" d="M5,0A5,5 0 1,1 0,-5A5,5 0 0,1 5,0Z" style="opacity: 1; stroke-width: 0px; fill: rgb(139, 0, 0); fill-opacity: 1;"/><path class="point" transform="translate(839.4,694.76)" d="M5,0A5,5 0 1,1 0,-5A5,5 0 0,1 5,0Z" style="opacity: 1; stroke-width: 0px; fill: rgb(139, 0, 0); fill-opacity: 1;"/><path class="point" transform="translate(855.62,698.24)" d="M5,0A5,5 0 1,1 0,-5A5,5 0 0,1 5,0Z" style="opacity: 1; stroke-width: 0px; fill: rgb(139, 0, 0); fill-opacity: 1;"/><path class="point" transform="translate(871.83,705.2)" d="M5,0A5,5 0 1,1 0,-5A5,5 0 0,1 5,0Z" style="opacity: 1; stroke-width: 0px; fill: rgb(139, 0, 0); fill-opacity: 1;"/><path class="point" transform="translate(888.05,705.2)" d="M5,0A5,5 0 1,1 0,-5A5,5 0 0,1 5,0Z" style="opacity: 1; stroke-width: 0px; fill: rgb(139, 0, 0); fill-opacity: 1;"/><path class="point" transform="translate(904.27,708.68)" d="M5,0A5,5 0 1,1 0,-5A5,5 0 0,1 5,0Z" style="opacity: 1; stroke-width: 0px; fill: rgb(139, 0, 0); fill-opacity: 1;"/><path class="point" transform="translate(920.48,711)" d="M5,0A5,5 0 1,1 0,-5A5,5 0 0,1 5,0Z" style="opacity: 1; stroke-width: 0px; fill: rgb(139, 0, 0); fill-opacity: 1;"/><path class="point" transform="translate(936.7,709.84)" d="M5,0A5,5 0 1,1 0,-5A5,5 0 0,1 5,0Z" style="opacity: 1; stroke-width: 0px; fill: rgb(139, 0, 0); fill-opacity: 1;"/><path class="point" transform="translate(952.92,707.52)" d="M5,0A5,5 0 1,1 0,-5A5,5 0 0,1 5,0Z" style="opacity: 1; stroke-width: 0px; fill: rgb(139, 0, 0); fill-opacity: 1;"/><path class="point" transform="translate(969.13,708.68)" d="M5,0A5,5 0 1,1 0,-5A5,5 0 0,1 5,0Z" style="opacity: 1; stroke-width: 0px; fill: rgb(139, 0, 0); fill-opacity: 1;"/><path class="point" transform="translate(985.35,711)" d="M5,0A5,5 0 1,1 0,-5A5,5 0 0,1 5,0Z" style="opacity: 1; stroke-width: 0px; fill: rgb(139, 0, 0); fill-opacity: 1;"/><path class="point" transform="translate(1001.57,711)" d="M5,0A5,5 0 1,1 0,-5A5,5 0 0,1 5,0Z" style="opacity: 1; stroke-width: 0px; fill: rgb(139, 0, 0); fill-opacity: 1;"/><path class="point" transform="translate(1017.78,711)" d="M5,0A5,5 0 1,1 0,-5A5,5 0 0,1 5,0Z" style="opacity: 1; stroke-width: 0px; fill: rgb(139, 0, 0); fill-opacity: 1;"/><path class="point" transform="translate(1034,709.84)" d="M5,0A5,5 0 1,1 0,-5A5,5 0 0,1 5,0Z" style="opacity: 1; stroke-width: 0px; fill: rgb(139, 0, 0); fill-opacity: 1;"/></g><g class="text"/></g></g></g><g class="overplot"/><path class="xlines-above crisp" d="M105,855.5h1095" style="fill: none; stroke-width: 3px; stroke: rgb(0, 0, 0); stroke-opacity: 1;"/><path class="ylines-above crisp" d="M105.5,100v755" style="fill: none; stroke-width: 3px; stroke: rgb(0, 0, 0); stroke-opacity: 1;"/><g class="overlines-above"/><g class="xaxislayer-above"><path class="xtick ticks crisp" d="M0,857v9" transform="translate(166,0)" style="stroke: rgb(0, 0, 0); stroke-opacity: 1; stroke-width: 3px;"/><path class="xtick ticks crisp" d="M0,857v9" transform="translate(328.16999999999996,0)" style="stroke: rgb(0, 0, 0); stroke-opacity: 1; stroke-width: 3px;"/><path class="xtick ticks crisp" d="M0,857v9" transform="translate(490.33,0)" style="stroke: rgb(0, 0, 0); stroke-opacity: 1; stroke-width: 3px;"/><path class="xtick ticks crisp" d="M0,857v9" transform="translate(652.5,0)" style="stroke: rgb(0, 0, 0); stroke-opacity: 1; stroke-width: 3px;"/><path class="xtick ticks crisp" d="M0,857v9" transform="translate(814.67,0)" style="stroke: rgb(0, 0, 0); stroke-opacity: 1; stroke-width: 3px;"/><path class="xtick ticks crisp" d="M0,857v9" transform="translate(976.83,0)" style="stroke: rgb(0, 0, 0); stroke-opacity: 1; stroke-width: 3px;"/><path class="xtick ticks crisp" d="M0,857v9" transform="translate(1139,0)" style="stroke: rgb(0, 0, 0); stroke-opacity: 1; stroke-width: 3px;"/><g class="xtick"><text text-anchor="middle" x="0" y="902" transform="translate(166,0)" style="font-family: 'Open Sans', verdana, arial, sans-serif; font-size: 30px; fill: rgb(0, 0, 0); fill-opacity: 1; white-space: pre;">−6</text></g><g class="xtick"><text text-anchor="middle" x="0" y="902" transform="translate(328.16999999999996,0)" style="font-family: 'Open Sans', verdana, arial, sans-serif; font-size: 30px; fill: rgb(0, 0, 0); fill-opacity: 1; white-space: pre;">−4</text></g><g class="xtick"><text text-anchor="middle" x="0" y="902" transform="translate(490.33,0)" style="font-family: 'Open Sans', verdana, arial, sans-serif; font-size: 30px; fill: rgb(0, 0, 0); fill-opacity: 1; white-space: pre;">−2</text></g><g class="xtick"><text text-anchor="middle" x="0" y="902" transform="translate(652.5,0)" style="font-family: 'Open Sans', verdana, arial, sans-serif; font-size: 30px; fill: rgb(0, 0, 0); fill-opacity: 1; white-space: pre;">0</text></g><g class="xtick"><text text-anchor="middle" x="0" y="902" transform="translate(814.67,0)" style="font-family: 'Open Sans', verdana, arial, sans-serif; font-size: 30px; fill: rgb(0, 0, 0); fill-opacity: 1; white-space: pre;">2</text></g><g class="xtick"><text text-anchor="middle" x="0" y="902" transform="translate(976.83,0)" style="font-family: 'Open Sans', verdana, arial, sans-serif; font-size: 30px; fill: rgb(0, 0, 0); fill-opacity: 1; white-space: pre;">4</text></g><g class="xtick"><text text-anchor="middle" x="0" y="902" transform="translate(1139,0)" style="font-family: 'Open Sans', verdana, arial, sans-serif; font-size: 30px; fill: rgb(0, 0, 0); fill-opacity: 1; white-space: pre;">6</text></g></g><g class="yaxislayer-above"><path class="ytick ticks crisp" d="M104,0h-9" transform="translate(0,811)" style="stroke: rgb(0, 0, 0); stroke-opacity: 1; stroke-width: 3px;"/><path class="ytick ticks crisp" d="M104,0h-9" transform="translate(0,695)" style="stroke: rgb(0, 0, 0); stroke-opacity: 1; stroke-width: 3px;"/><path class="ytick ticks crisp" d="M104,0h-9" transform="translate(0,579)" style="stroke: rgb(0, 0, 0); stroke-opacity: 1; stroke-width: 3px;"/><path class="ytick ticks crisp" d="M104,0h-9" transform="translate(0,463)" style="stroke: rgb(0, 0, 0); stroke-opacity: 1; stroke-width: 3px;"/><path class="ytick ticks crisp" d="M104,0h-9" transform="translate(0,347)" style="stroke: rgb(0, 0, 0); stroke-opacity: 1; stroke-width: 3px;"/><path class="ytick ticks crisp" d="M104,0h-9" transform="translate(0,231)" style="stroke: rgb(0, 0, 0); stroke-opacity: 1; stroke-width: 3px;"/><path class="ytick ticks crisp" d="M104,0h-9" transform="translate(0,115)" style="stroke: rgb(0, 0, 0); stroke-opacity: 1; stroke-width: 3px;"/><g class="ytick"><text text-anchor="middle" x="68" y="10.5" transform="translate(0,811) rotate(-90,68,-4.5)" style="font-family: 'Open Sans', verdana, arial, sans-serif; font-size: 30px; fill: rgb(0, 0, 0); fill-opacity: 1; white-space: pre;">0</text></g><g class="ytick"><text text-anchor="middle" x="68" y="10.5" transform="translate(0,695) rotate(-90,68,-4.5)" style="font-family: 'Open Sans', verdana, arial, sans-serif; font-size: 30px; fill: rgb(0, 0, 0); fill-opacity: 1; white-space: pre;">500</text></g><g class="ytick"><text text-anchor="middle" x="68" y="10.5" transform="translate(0,579) rotate(-90,68,-4.5)" style="font-family: 'Open Sans', verdana, arial, sans-serif; font-size: 30px; fill: rgb(0, 0, 0); fill-opacity: 1; white-space: pre;">1000</text></g><g class="ytick"><text text-anchor="middle" x="68" y="10.5" transform="translate(0,463) rotate(-90,68,-4.5)" style="font-family: 'Open Sans', verdana, arial, sans-serif; font-size: 30px; fill: rgb(0, 0, 0); fill-opacity: 1; white-space: pre;">1500</text></g><g class="ytick"><text text-anchor="middle" x="68" y="10.5" transform="translate(0,347) rotate(-90,68,-4.5)" style="font-family: 'Open Sans', verdana, arial, sans-serif; font-size: 30px; fill: rgb(0, 0, 0); fill-opacity: 1; white-space: pre;">2000</text></g><g class="ytick"><text text-anchor="middle" x="68" y="10.5" transform="translate(0,231) rotate(-90,68,-4.5)" style="font-family: 'Open Sans', verdana, arial, sans-serif; font-size: 30px; fill: rgb(0, 0, 0); fill-opacity: 1; white-space: pre;">2500</text></g><g class="ytick"><text text-anchor="middle" x="68" y="10.5" transform="translate(0,115) rotate(-90,68,-4.5)" style="font-family: 'Open Sans', verdana, arial, sans-serif; font-size: 30px; fill: rgb(0, 0, 0); fill-opacity: 1; white-space: pre;">3000</text></g></g><g class="overaxes-above"/></g></g><g class="polarlayer"/><g class="ternarylayer"/><g class="geolayer"/><g class="funnelarealayer"/><g class="pielayer"/><g class="treemaplayer"/><g class="sunburstlayer"/><g class="glimages"/><defs id="topdefs-48a8e5"><g class="clips"/><clipPath id="legend48a8e5"><rect width="265" height="107" x="3" y="3"/></clipPath></defs><g class="layer-above"><g class="imagelayer"/><g class="shapelayer"><path data-index="0" fill-rule="evenodd" d="M105,100L1200,100" style="opacity: 1; stroke: rgb(0, 0, 0); stroke-opacity: 1; fill: rgb(0, 0, 0); fill-opacity: 0; stroke-width: 3px;"/><path data-index="1" fill-rule="evenodd" d="M1200,855L1200,100" style="opacity: 1; stroke: rgb(0, 0, 0); stroke-opacity: 1; fill: rgb(0, 0, 0); fill-opacity: 0; stroke-width: 3px;"/></g></g><g class="infolayer"><g class="legend" pointer-events="all" transform="translate(918.05,110.04149999999998)"><rect class="bg" shape-rendering="crispEdges" style="stroke: rgb(0, 0, 0); stroke-opacity: 1; fill: rgb(255, 255, 255); fill-opacity: 1; stroke-width: 3px;" width="268" height="110" x="1.5" y="1.5"/><g class="scrollbox" transform="" clip-path="url('#legend48a8e5')"><g class="groups"><g class="traces" transform="translate(3,32.25)" style="opacity: 1;"><text class="legendtext" text-anchor="start" x="62" y="13.65" style="font-family: serif; font-size: 35px; fill: rgb(0, 0, 0); fill-opacity: 1; white-space: pre;">Diffusion</text><g class="layers" style="opacity: 1;"><g class="legendfill"/><g class="legendlines"><path class="js-line" d="M5,0h52" style="fill: none; stroke: rgb(0, 0, 139); stroke-opacity: 1; stroke-width: 3px;"/></g><g class="legendsymbols"><g class="legendpoints"/></g></g><rect class="legendtoggle" x="0" y="-24.25" width="260" height="48.5" style="fill: rgb(0, 0, 0); fill-opacity: 0;"/></g><g class="traces" transform="translate(3,80.75)" style="opacity: 1;"><text class="legendtext" text-anchor="start" x="62" y="13.65" style="font-family: serif; font-size: 35px; fill: rgb(0, 0, 0); fill-opacity: 1; white-space: pre;">Random walk</text><g class="layers" style="opacity: 1;"><g class="legendfill"/><g class="legendlines"/><g class="legendsymbols"><g class="legendpoints"><path class="scatterpts" transform="translate(31,0)" d="M5,0A5,5 0 1,1 0,-5A5,5 0 0,1 5,0Z" style="opacity: 1; stroke-width: 0px; fill: rgb(139, 0, 0); fill-opacity: 1;"/></g></g></g><rect class="legendtoggle" x="0" y="-24.25" width="260" height="48.5" style="fill: rgb(0, 0, 0); fill-opacity: 0;"/></g></g></g><rect class="scrollbar" rx="20" ry="3" width="0" height="0" style="fill: rgb(128, 139, 164); fill-opacity: 1;" x="0" y="0"/></g><g class="g-gtitle"><text class="gtitle" x="640" y="50" text-anchor="middle" dy="0em" style="font-family: serif; font-size: 35px; fill: rgb(0, 0, 0); opacity: 1; font-weight: normal; white-space: pre;">Diffusion / random walk</text></g><g class="g-xtitle" transform="translate(0,-20)"><text class="xtitle" x="652.5" y="972" text-anchor="middle" style="font-family: serif; font-size: 35px; fill: rgb(0, 0, 0); opacity: 1; font-weight: normal; white-space: pre;">x. a.u.</text></g><g class="g-ytitle" transform="translate(8,0)"><text class="ytitle" transform="rotate(-90,23,477.5)" x="23" y="477.5" text-anchor="middle" style="font-family: serif; font-size: 35px; fill: rgb(0, 0, 0); opacity: 1; font-weight: normal; white-space: pre;">Number of particles</text></g></g></svg>