<svg class="main-svg" xmlns="http://www.w3.org/2000/svg" xmlns:xlink="http://www.w3.org/1999/xlink" width="1024" height="768" style="" viewBox="0 0 1024 768"><rect x="0" y="0" width="1024" height="768" style="fill: rgb(255, 255, 255); fill-opacity: 1;"/><defs id="defs-35126e"><g class="clips"><clipPath id="clip35126exyplot" class="plotclip"><rect width="819" height="593"/></clipPath><clipPath class="axesclip" id="clip35126ex"><rect x="125" y="0" width="819" height="768"/></clipPath><clipPath class="axesclip" id="clip35126ey"><rect x="0" y="100" width="1024" height="593"/></clipPath><clipPath class="axesclip" id="clip35126exy"><rect x="125" y="100" width="819" height="593"/></clipPath></g><g class="gradients"/></defs><g class="bglayer"><rect class="bg" x="125" y="100" width="819" height="593" style="fill: rgb(0, 0, 0); fill-opacity: 0; stroke-width: 0;"/></g><g class="layer-below"><g class="imagelayer"/><g class="shapelayer"/></g><g class="cartesianlayer"><g class="subplot xy"><g class="layer-subplot"><g class="shapelayer"/><g class="imagelayer"/></g><g class="gridlayer"><g class="x"><path class="xgrid crisp" transform="translate(172.2,0)" d="M0,100v593" style="stroke: rgb(120, 120, 120); stroke-opacity: 1; stroke-width: 1px;"/><path class="xgrid crisp" transform="translate(292.97,0)" d="M0,100v593" style="stroke: rgb(120, 120, 120); stroke-opacity: 1; stroke-width: 1px;"/><path class="xgrid crisp" transform="translate(413.73,0)" d="M0,100v593" style="stroke: rgb(120, 120, 120); stroke-opacity: 1; stroke-width: 1px;"/><path class="xgrid crisp" transform="translate(534.5,0)" d="M0,100v593" style="stroke: rgb(120, 120, 120); stroke-opacity: 1; stroke-width: 1px;"/><path class="xgrid crisp" transform="translate(655.27,0)" d="M0,100v593" style="stroke: rgb(120, 120, 120); stroke-opacity: 1; stroke-width: 1px;"/><path class="xgrid crisp" transform="translate(776.03,0)" d="M0,100v593" style="stroke: rgb(120, 120, 120); stroke-opacity: 1; stroke-width: 1px;"/><path class="xgrid crisp" transform="translate(896.8,0)" d="M0,100v593" style="stroke: rgb(120, 120, 120); stroke-opacity: 1; stroke-width: 1px;"/></g><g class="y"><path class="ygrid crisp" transform="translate(0,657.1)" d="M125,0h819" style="stroke: rgb(120, 120, 120); stroke-opacity: 1; stroke-width: 1px;"/><path class="ygrid crisp" transform="translate(0,566.46)" d="M125,0h819" style="stroke: rgb(120, 120, 120); stroke-opacity: 1; stroke-width: 1px;"/><path class="ygrid crisp" transform="translate(0,475.81)" d="M125,0h819" style="stroke: rgb(120, 120, 120); stroke-opacity: 1; stroke-width: 1px;"/><path class="ygrid crisp" transform="translate(0,385.17)" d="M125,0h819" style="stroke: rgb(120, 120, 120); stroke-opacity: 1; stroke-width: 1px;"/><path class="ygrid crisp" transform="translate(0,294.53)" d="M125,0h819" style="stroke: rgb(120, 120, 120); stroke-opacity: 1; stroke-width: 1px;"/><path class="ygrid crisp" transform="translate(0,203.88)" d="M125,0h819" style="stroke: rgb(120, 120, 120); stroke-opacity: 1; stroke-width: 1px;"/><path class="ygrid crisp" transform="translate(0,113.24)" d="M125,0h819" style="stroke: rgb(120, 120, 120); stroke-opacity: 1; stroke-width: 1px;"/></g></g><g class="zerolinelayer"/><path class="xlines-below"/><path class="ylines-below"/><g class="overlines-below"/><g class="xaxislayer-below"/><g class="yaxislayer-below"/><g class="overaxes-below"/><g class="plot" transform="translate(125,100)" clip-path="url('#clip35126exyplot')"><g class="scatterlayer mlayer"><g class="trace scatter tracecbeb49" style="stroke-miterlimit: 2; opacity: 1;"><g class="fills"/><g class="errorbars"/><g class="lines"><path class="js-line" d="M47.2,557.04L107.58,556.11L113.62,555.84L137.78,553.86L143.81,553.06L161.93,549.45L167.97,547.73L180.04,543.27L186.08,540.41L198.16,533.18L204.2,528.68L216.27,517.57L222.31,510.82L234.39,494.63L240.43,485.06L252.5,462.74L258.54,449.9L270.62,420.83L276.66,404.6L288.73,368.97L294.77,349.7L312.89,287.44L318.93,265.71L349.12,158.82L355.16,139.45L367.23,104.66L373.27,89.71L379.31,76.68L385.35,65.75L391.39,57.08L397.42,50.79L403.46,46.98L409.5,45.7L415.54,46.98L421.58,50.79L427.62,57.08L433.65,65.75L439.69,76.68L445.73,89.71L457.81,121.31L463.85,139.45L475.92,179.19L481.96,200.31L524.23,349.7L530.27,368.97L542.34,404.6L548.38,420.83L560.46,449.9L566.5,462.74L578.57,485.06L584.61,494.63L596.69,510.82L602.73,517.57L614.8,528.68L620.84,533.18L632.92,540.41L638.96,543.27L651.03,547.73L657.07,549.45L675.19,553.06L681.22,553.86L705.38,555.84L711.42,556.11L753.69,556.95L759.72,556.99L771.8,557.04" style="vector-effect: non-scaling-stroke; fill: none; stroke: rgb(0, 0, 139); stroke-opacity: 1; stroke-width: 3px; opacity: 1;"/></g><g class="points"/><g class="text"/></g><g class="trace scatter trace415180" style="stroke-miterlimit: 2; opacity: 1;"><g class="fills"/><g class="errorbars"/><g class="lines"/><g class="points"><path class="point" transform="translate(47.2,557.1)" d="M5,0A5,5 0 1,1 0,-5A5,5 0 0,1 5,0Z" style="opacity: 1; stroke-width: 0px; fill: rgb(139, 0, 0); fill-opacity: 1;"/><path class="point" transform="translate(59.28,556.19)" d="M5,0A5,5 0 1,1 0,-5A5,5 0 0,1 5,0Z" style="opacity: 1; stroke-width: 0px; fill: rgb(139, 0, 0); fill-opacity: 1;"/><path class="point" transform="translate(71.35,557.1)" d="M5,0A5,5 0 1,1 0,-5A5,5 0 0,1 5,0Z" style="opacity: 1; stroke-width: 0px; fill: rgb(139, 0, 0); fill-opacity: 1;"/><path class="point" transform="translate(83.43,557.1)" d="M5,0A5,5 0 1,1 0,-5A5,5 0 0,1 5,0Z" style="opacity: 1; stroke-width: 0px; fill: rgb(139, 0, 0); fill-opacity: 1;"/><path class="point" transform="translate(95.51,557.1)" d="M5,0A5,5 0 1,1 0,-5A5,5 0 0,1 5,0Z" style="opacity: 1; stroke-width: 0px; fill: rgb(139, 0, 0); fill-opacity: 1;"/><path class="point" transform="translate(107.58,557.1)" d="M5,0A5,5 0 1,1 0,-5A5,5 0 0,1 5,0Z" style="opacity: 1; stroke-width: 0px; fill: rgb(139, 0, 0); fill-opacity: 1;"/><path class="point" transform="translate(119.66,556.19)" d="M5,0A5,5 0 1,1 0,-5A5,5 0 0,1 5,0Z" style="opacity: 1; stroke-width: 0px; fill: rgb(139, 0, 0); fill-opacity: 1;"/><path class="point" transform="translate(131.74,553.47)" d="M5,0A5,5 0 1,1 0,-5A5,5 0 0,1 5,0Z" style="opacity: 1; stroke-width: 0px; fill: rgb(139, 0, 0); fill-opacity: 1;"/><path class="point" transform="translate(143.81,556.19)" d="M5,0A5,5 0 1,1 0,-5A5,5 0 0,1 5,0Z" style="opacity: 1; stroke-width: 0px; fill: rgb(139, 0, 0); fill-opacity: 1;"/><path class="point" transform="translate(155.89,552.57)" d="M5,0A5,5 0 1,1 0,-5A5,5 0 0,1 5,0Z" style="opacity: 1; stroke-width: 0px; fill: rgb(139, 0, 0); fill-opacity: 1;"/><path class="point" transform="translate(167.97,548.04)" d="M5,0A5,5 0 1,1 0,-5A5,5 0 0,1 5,0Z" style="opacity: 1; stroke-width: 0px; fill: rgb(139, 0, 0); fill-opacity: 1;"/><path class="point" transform="translate(180.04,543.5)" d="M5,0A5,5 0 1,1 0,-5A5,5 0 0,1 5,0Z" style="opacity: 1; stroke-width: 0px; fill: rgb(139, 0, 0); fill-opacity: 1;"/><path class="point" transform="translate(192.12,538.06)" d="M5,0A5,5 0 1,1 0,-5A5,5 0 0,1 5,0Z" style="opacity: 1; stroke-width: 0px; fill: rgb(139, 0, 0); fill-opacity: 1;"/><path class="point" transform="translate(204.2,532.63)" d="M5,0A5,5 0 1,1 0,-5A5,5 0 0,1 5,0Z" style="opacity: 1; stroke-width: 0px; fill: rgb(139, 0, 0); fill-opacity: 1;"/><path class="point" transform="translate(216.27,521.75)" d="M5,0A5,5 0 1,1 0,-5A5,5 0 0,1 5,0Z" style="opacity: 1; stroke-width: 0px; fill: rgb(139, 0, 0); fill-opacity: 1;"/><path class="point" transform="translate(228.35,511.78)" d="M5,0A5,5 0 1,1 0,-5A5,5 0 0,1 5,0Z" style="opacity: 1; stroke-width: 0px; fill: rgb(139, 0, 0); fill-opacity: 1;"/><path class="point" transform="translate(240.43,488.21)" d="M5,0A5,5 0 1,1 0,-5A5,5 0 0,1 5,0Z" style="opacity: 1; stroke-width: 0px; fill: rgb(139, 0, 0); fill-opacity: 1;"/><path class="point" transform="translate(252.5,455.58)" d="M5,0A5,5 0 1,1 0,-5A5,5 0 0,1 5,0Z" style="opacity: 1; stroke-width: 0px; fill: rgb(139, 0, 0); fill-opacity: 1;"/><path class="point" transform="translate(264.58,428.39)" d="M5,0A5,5 0 1,1 0,-5A5,5 0 0,1 5,0Z" style="opacity: 1; stroke-width: 0px; fill: rgb(139, 0, 0); fill-opacity: 1;"/><path class="point" transform="translate(276.66,418.42)" d="M5,0A5,5 0 1,1 0,-5A5,5 0 0,1 5,0Z" style="opacity: 1; stroke-width: 0px; fill: rgb(139, 0, 0); fill-opacity: 1;"/><path class="point" transform="translate(288.73,361.31)" d="M5,0A5,5 0 1,1 0,-5A5,5 0 0,1 5,0Z" style="opacity: 1; stroke-width: 0px; fill: rgb(139, 0, 0); fill-opacity: 1;"/><path class="point" transform="translate(300.81,334.12)" d="M5,0A5,5 0 1,1 0,-5A5,5 0 0,1 5,0Z" style="opacity: 1; stroke-width: 0px; fill: rgb(139, 0, 0); fill-opacity: 1;"/><path class="point" transform="translate(312.89,257.98)" d="M5,0A5,5 0 1,1 0,-5A5,5 0 0,1 5,0Z" style="opacity: 1; stroke-width: 0px; fill: rgb(139, 0, 0); fill-opacity: 1;"/><path class="point" transform="translate(324.96,237.13)" d="M5,0A5,5 0 1,1 0,-5A5,5 0 0,1 5,0Z" style="opacity: 1; stroke-width: 0px; fill: rgb(139, 0, 0); fill-opacity: 1;"/><path class="point" transform="translate(337.04,213.56)" d="M5,0A5,5 0 1,1 0,-5A5,5 0 0,1 5,0Z" style="opacity: 1; stroke-width: 0px; fill: rgb(139, 0, 0); fill-opacity: 1;"/><path class="point" transform="translate(349.12,153.74)" d="M5,0A5,5 0 1,1 0,-5A5,5 0 0,1 5,0Z" style="opacity: 1; stroke-width: 0px; fill: rgb(139, 0, 0); fill-opacity: 1;"/><path class="point" transform="translate(361.19,129.26)" d="M5,0A5,5 0 1,1 0,-5A5,5 0 0,1 5,0Z" style="opacity: 1; stroke-width: 0px; fill: rgb(139, 0, 0); fill-opacity: 1;"/><path class="point" transform="translate(373.27,79.41)" d="M5,0A5,5 0 1,1 0,-5A5,5 0 0,1 5,0Z" style="opacity: 1; stroke-width: 0px; fill: rgb(139, 0, 0); fill-opacity: 1;"/><path class="point" transform="translate(385.35,35.9)" d="M5,0A5,5 0 1,1 0,-5A5,5 0 0,1 5,0Z" style="opacity: 1; stroke-width: 0px; fill: rgb(139, 0, 0); fill-opacity: 1;"/><path class="point" transform="translate(397.42,65.81)" d="M5,0A5,5 0 1,1 0,-5A5,5 0 0,1 5,0Z" style="opacity: 1; stroke-width: 0px; fill: rgb(139, 0, 0); fill-opacity: 1;"/><path class="point" transform="translate(409.5,64.91)" d="M5,0A5,5 0 1,1 0,-5A5,5 0 0,1 5,0Z" style="opacity: 1; stroke-width: 0px; fill: rgb(139, 0, 0); fill-opacity: 1;"/><path class="point" transform="translate(421.58,36.81)" d="M5,0A5,5 0 1,1 0,-5A5,5 0 0,1 5,0Z" style="opacity: 1; stroke-width: 0px; fill: rgb(139, 0, 0); fill-opacity: 1;"/><path class="point" transform="translate(433.65,55.84)" d="M5,0A5,5 0 1,1 0,-5A5,5 0 0,1 5,0Z" style="opacity: 1; stroke-width: 0px; fill: rgb(139, 0, 0); fill-opacity: 1;"/><path class="point" transform="translate(445.73,58.56)" d="M5,0A5,5 0 1,1 0,-5A5,5 0 0,1 5,0Z" style="opacity: 1; stroke-width: 0px; fill: rgb(139, 0, 0); fill-opacity: 1;"/><path class="point" transform="translate(457.81,149.2)" d="M5,0A5,5 0 1,1 0,-5A5,5 0 0,1 5,0Z" style="opacity: 1; stroke-width: 0px; fill: rgb(139, 0, 0); fill-opacity: 1;"/><path class="point" transform="translate(469.88,148.3)" d="M5,0A5,5 0 1,1 0,-5A5,5 0 0,1 5,0Z" style="opacity: 1; stroke-width: 0px; fill: rgb(139, 0, 0); fill-opacity: 1;"/><path class="point" transform="translate(481.96,180.93)" d="M5,0A5,5 0 1,1 0,-5A5,5 0 0,1 5,0Z" style="opacity: 1; stroke-width: 0px; fill: rgb(139, 0, 0); fill-opacity: 1;"/><path class="point" transform="translate(494.04,266.13)" d="M5,0A5,5 0 1,1 0,-5A5,5 0 0,1 5,0Z" style="opacity: 1; stroke-width: 0px; fill: rgb(139, 0, 0); fill-opacity: 1;"/><path class="point" transform="translate(506.11,296.05)" d="M5,0A5,5 0 1,1 0,-5A5,5 0 0,1 5,0Z" style="opacity: 1; stroke-width: 0px; fill: rgb(139, 0, 0); fill-opacity: 1;"/><path class="point" transform="translate(518.19,345.9)" d="M5,0A5,5 0 1,1 0,-5A5,5 0 0,1 5,0Z" style="opacity: 1; stroke-width: 0px; fill: rgb(139, 0, 0); fill-opacity: 1;"/><path class="point" transform="translate(530.27,375.81)" d="M5,0A5,5 0 1,1 0,-5A5,5 0 0,1 5,0Z" style="opacity: 1; stroke-width: 0px; fill: rgb(139, 0, 0); fill-opacity: 1;"/><path class="point" transform="translate(542.34,403.01)" d="M5,0A5,5 0 1,1 0,-5A5,5 0 0,1 5,0Z" style="opacity: 1; stroke-width: 0px; fill: rgb(139, 0, 0); fill-opacity: 1;"/><path class="point" transform="translate(554.42,431.11)" d="M5,0A5,5 0 1,1 0,-5A5,5 0 0,1 5,0Z" style="opacity: 1; stroke-width: 0px; fill: rgb(139, 0, 0); fill-opacity: 1;"/><path class="point" transform="translate(566.5,461.02)" d="M5,0A5,5 0 1,1 0,-5A5,5 0 0,1 5,0Z" style="opacity: 1; stroke-width: 0px; fill: rgb(139, 0, 0); fill-opacity: 1;"/><path class="point" transform="translate(578.57,480.96)" d="M5,0A5,5 0 1,1 0,-5A5,5 0 0,1 5,0Z" style="opacity: 1; stroke-width: 0px; fill: rgb(139, 0, 0); fill-opacity: 1;"/><path class="point" transform="translate(590.65,503.62)" d="M5,0A5,5 0 1,1 0,-5A5,5 0 0,1 5,0Z" style="opacity: 1; stroke-width: 0px; fill: rgb(139, 0, 0); fill-opacity: 1;"/><path class="point" transform="translate(602.73,519.94)" d="M5,0A5,5 0 1,1 0,-5A5,5 0 0,1 5,0Z" style="opacity: 1; stroke-width: 0px; fill: rgb(139, 0, 0); fill-opacity: 1;"/><path class="point" transform="translate(614.8,523.56)" d="M5,0A5,5 0 1,1 0,-5A5,5 0 0,1 5,0Z" style="opacity: 1; stroke-width: 0px; fill: rgb(139, 0, 0); fill-opacity: 1;"/><path class="point" transform="translate(626.88,544.41)" d="M5,0A5,5 0 1,1 0,-5A5,5 0 0,1 5,0Z" style="opacity: 1; stroke-width: 0px; fill: rgb(139, 0, 0); fill-opacity: 1;"/><path class="point" transform="translate(638.96,547.13)" d="M5,0A5,5 0 1,1 0,-5A5,5 0 0,1 5,0Z" style="opacity: 1; stroke-width: 0px; fill: rgb(139, 0, 0); fill-opacity: 1;"/><path class="point" transform="translate(651.03,552.57)" d="M5,0A5,5 0 1,1 0,-5A5,5 0 0,1 5,0Z" style="opacity: 1; stroke-width: 0px; fill: rgb(139, 0, 0); fill-opacity: 1;"/><path class="point" transform="translate(663.11,552.57)" d="M5,0A5,5 0 1,1 0,-5A5,5 0 0,1 5,0Z" style="opacity: 1; stroke-width: 0px; fill: rgb(139, 0, 0); fill-opacity: 1;"/><path class="point" transform="translate(675.19,555.29)" d="M5,0A5,5 0 1,1 0,-5A5,5 0 0,1 5,0Z" style="opacity: 1; stroke-width: 0px; fill: rgb(139, 0, 0); fill-opacity: 1;"/><path class="point" transform="translate(687.26,557.1)" d="M5,0A5,5 0 1,1 0,-5A5,5 0 0,1 5,0Z" style="opacity: 1; stroke-width: 0px; fill: rgb(139, 0, 0); fill-opacity: 1;"/><path class="point" transform="translate(699.34,556.19)" d="M5,0A5,5 0 1,1 0,-5A5,5 0 0,1 5,0Z" style="opacity: 1; stroke-width: 0px; fill: rgb(139, 0, 0); fill-opacity: 1;"/><path class="point" transform="translate(711.42,554.38)" d="M5,0A5,5 0 1,1 0,-5A5,5 0 0,1 5,0Z" style="opacity: 1; stroke-width: 0px; fill: rgb(139, 0, 0); fill-opacity: 1;"/><path class="point" transform="translate(723.49,555.29)" d="M5,0A5,5 0 1,1 0,-5A5,5 0 0,1 5,0Z" style="opacity: 1; stroke-width: 0px; fill: rgb(139, 0, 0); fill-opacity: 1;"/><path class="point" transform="translate(735.57,557.1)" d="M5,0A5,5 0 1,1 0,-5A5,5 0 0,1 5,0Z" style="opacity: 1; stroke-width: 0px; fill: rgb(139, 0, 0); fill-opacity: 1;"/><path class="point" transform="translate(747.65,557.1)" d="M5,0A5,5 0 1,1 0,-5A5,5 0 0,1 5,0Z" style="opacity: 1; stroke-width: 0px; fill: rgb(139, 0, 0); fill-opacity: 1;"/><path class="point" transform="translate(759.72,557.1)" d="M5,0A5,5 0 1,1 0,-5A5,5 0 0,1 5,0Z" style="opacity: 1; stroke-width: 0px; fill: rgb(139, 0, 0); fill-opacity: 1;"/><path class="point" transform="translate(771.8,556.19)" d="M5,0A5,5 0 1,1 0,-5A5,5 0 0,1 5,0Z" style="opacity: 1; stroke-width: 0px; fill: rgb(139, 0, 0); fill-opacity: 1;"/></g><g class="text"/></g></g></g><g class="overplot"/><path class="xlines-above crisp" d="M125,693h819" style="fill: none; stroke-width: 4px; stroke: rgb(0, 0, 0); stroke-opacity: 1;"/><path class="ylines-above crisp" d="M125,100v593" style="fill: none; stroke-width: 4px; stroke: rgb(0, 0, 0); stroke-opacity: 1;"/><g class="overlines-above"/><g class="xaxislayer-above"><path class="xtick ticks crisp" d="M0,695v6" transform="translate(172.2,0)" style="stroke: rgb(0, 0, 0); stroke-opacity: 1; stroke-width: 3px;"/><path class="xtick ticks crisp" d="M0,695v6" transform="translate(292.97,0)" style="stroke: rgb(0, 0, 0); stroke-opacity: 1; stroke-width: 3px;"/><path class="xtick ticks crisp" d="M0,695v6" transform="translate(413.73,0)" style="stroke: rgb(0, 0, 0); stroke-opacity: 1; stroke-width: 3px;"/><path class="xtick ticks crisp" d="M0,695v6" transform="translate(534.5,0)" style="stroke: rgb(0, 0, 0); stroke-opacity: 1; stroke-width: 3px;"/><path class="xtick ticks crisp" d="M0,695v6" transform="translate(655.27,0)" style="stroke: rgb(0, 0, 0); stroke-opacity: 1; stroke-width: 3px;"/><path class="xtick ticks crisp" d="M0,695v6" transform="translate(776.03,0)" style="stroke: rgb(0, 0, 0); stroke-opacity: 1; stroke-width: 3px;"/><path class="xtick ticks crisp" d="M0,695v6" transform="translate(896.8,0)" style="stroke: rgb(0, 0, 0); stroke-opacity: 1; stroke-width: 3px;"/><g class="xtick"><text text-anchor="middle" x="0" y="731" transform="translate(172.2,0)" style="font-family: 'Open Sans', verdana, arial, sans-serif; font-size: 25px; fill: rgb(0, 0, 0); fill-opacity: 1; white-space: pre;">−6</text></g><g class="xtick"><text text-anchor="middle" x="0" y="731" transform="translate(292.97,0)" style="font-family: 'Open Sans', verdana, arial, sans-serif; font-size: 25px; fill: rgb(0, 0, 0); fill-opacity: 1; white-space: pre;">−4</text></g><g class="xtick"><text text-anchor="middle" x="0" y="731" transform="translate(413.73,0)" style="font-family: 'Open Sans', verdana, arial, sans-serif; font-size: 25px; fill: rgb(0, 0, 0); fill-opacity: 1; white-space: pre;">−2</text></g><g class="xtick"><text text-anchor="middle" x="0" y="731" transform="translate(534.5,0)" style="font-family: 'Open Sans', verdana, arial, sans-serif; font-size: 25px; fill: rgb(0, 0, 0); fill-opacity: 1; white-space: pre;">0</text></g><g class="xtick"><text text-anchor="middle" x="0" y="731" transform="translate(655.27,0)" style="font-family: 'Open Sans', verdana, arial, sans-serif; font-size: 25px; fill: rgb(0, 0, 0); fill-opacity: 1; white-space: pre;">2</text></g><g class="xtick"><text text-anchor="middle" x="0" y="731" transform="translate(776.03,0)" style="font-family: 'Open Sans', verdana, arial, sans-serif; font-size: 25px; fill: rgb(0, 0, 0); fill-opacity: 1; white-space: pre;">4</text></g><g class="xtick"><text text-anchor="middle" x="0" y="731" transform="translate(896.8,0)" style="font-family: 'Open Sans', verdana, arial, sans-serif; font-size: 25px; fill: rgb(0, 0, 0); fill-opacity: 1; white-space: pre;">6</text></g></g><g class="yaxislayer-above"><path class="ytick ticks crisp" d="M123,0h-6" transform="translate(0,657.1)" style="stroke: rgb(0, 0, 0); stroke-opacity: 1; stroke-width: 3px;"/><path class="ytick ticks crisp" d="M123,0h-6" transform="translate(0,566.46)" style="stroke: rgb(0, 0, 0); stroke-opacity: 1; stroke-width: 3px;"/><path class="ytick ticks crisp" d="M123,0h-6" transform="translate(0,475.81)" style="stroke: rgb(0, 0, 0); stroke-opacity: 1; stroke-width: 3px;"/><path class="ytick ticks crisp" d="M123,0h-6" transform="translate(0,385.17)" style="stroke: rgb(0, 0, 0); stroke-opacity: 1; stroke-width: 3px;"/><path class="ytick ticks crisp" d="M123,0h-6" transform="translate(0,294.53)" style="stroke: rgb(0, 0, 0); stroke-opacity: 1; stroke-width: 3px;"/><path class="ytick ticks crisp" d="M123,0h-6" transform="translate(0,203.88)" style="stroke: rgb(0, 0, 0); stroke-opacity: 1; stroke-width: 3px;"/><path class="ytick ticks crisp" d="M123,0h-6" transform="translate(0,113.24)" style="stroke: rgb(0, 0, 0); stroke-opacity: 1; stroke-width: 3px;"/><g class="ytick"><text text-anchor="end" x="112" y="8.75" transform="translate(0,657.1)" style="font-family: 'Open Sans', verdana, arial, sans-serif; font-size: 25px; fill: rgb(0, 0, 0); fill-opacity: 1; white-space: pre;">0</text></g><g class="ytick"><text text-anchor="end" x="112" y="8.75" transform="translate(0,566.46)" style="font-family: 'Open Sans', verdana, arial, sans-serif; font-size: 25px; fill: rgb(0, 0, 0); fill-opacity: 1; white-space: pre;">500</text></g><g class="ytick"><text text-anchor="end" x="112" y="8.75" transform="translate(0,475.81)" style="font-family: 'Open Sans', verdana, arial, sans-serif; font-size: 25px; fill: rgb(0, 0, 0); fill-opacity: 1; white-space: pre;">1000</text></g><g class="ytick"><text text-anchor="end" x="112" y="8.75" transform="translate(0,385.17)" style="font-family: 'Open Sans', verdana, arial, sans-serif; font-size: 25px; fill: rgb(0, 0, 0); fill-opacity: 1; white-space: pre;">1500</text></g><g class="ytick"><text text-anchor="end" x="112" y="8.75" transform="translate(0,294.53)" style="font-family: 'Open Sans', verdana, arial, sans-serif; font-size: 25px; fill: rgb(0, 0, 0); fill-opacity: 1; white-space: pre;">2000</text></g><g class="ytick"><text text-anchor="end" x="112" y="8.75" transform="translate(0,203.88)" style="font-family: 'Open Sans', verdana, arial, sans-serif; font-size: 25px; fill: rgb(0, 0, 0); fill-opacity: 1; white-space: pre;">2500</text></g><g class="ytick"><text text-anchor="end" x="112" y="8.75" transform="translate(0,113.24)" style="font-family: 'Open Sans', verdana, arial, sans-serif; font-size: 25px; fill: rgb(0, 0, 0); fill-opacity: 1; white-space: pre;">3000</text></g></g><g class="overaxes-above"/></g></g><g class="polarlayer"/><g class="ternarylayer"/><g class="geolayer"/><g class="funnelarealayer"/><g class="pielayer"/><g class="treemaplayer"/><g class="sunburstlayer"/><g class="glimages"/><defs id="topdefs-35126e"><g class="clips"/><clipPath id="legend35126e"><rect width="130" height="81" x="3" y="3"/></clipPath></defs><g class="layer-above"><g class="imagelayer"/><g class="shapelayer"><path data-index="0" fill-rule="evenodd" d="M125,100L944,100" style="opacity: 1; stroke: rgb(0, 0, 0); stroke-opacity: 1; fill: rgb(0, 0, 0); fill-opacity: 0; stroke-width: 4px;"/><path data-index="1" fill-rule="evenodd" d="M944,693L944,100" style="opacity: 1; stroke: rgb(0, 0, 0); stroke-opacity: 1; fill: rgb(0, 0, 0); fill-opacity: 0; stroke-width: 4px;"/></g></g><g class="infolayer"><g class="legend" pointer-events="all" transform="translate(799.81,107.88689999999998)"><rect class="bg" shape-rendering="crispEdges" style="stroke: rgb(0, 0, 0); stroke-opacity: 1; fill: rgb(255, 255, 255); fill-opacity: 1; stroke-width: 3px;" width="133" height="84" x="1.5" y="1.5"/><g class="scrollbox" transform="" clip-path="url('#legend35126e')"><g class="groups"><g class="traces" transform="translate(3,25.75)" style="opacity: 1;"><text class="legendtext" text-anchor="start" x="62" y="9.75" style="font-family: serif; font-size: 25px; fill: rgb(0, 0, 0); fill-opacity: 1; white-space: pre;">Diff.  </text><g class="layers" style="opacity: 1;"><g class="legendfill"/><g class="legendlines"><path class="js-line" d="M5,0h52" style="fill: none; stroke: rgb(0, 0, 139); stroke-opacity: 1; stroke-width: 3px;"/></g><g class="legendsymbols"><g class="legendpoints"/></g></g><rect class="legendtoggle" x="0" y="-17.75" width="125" height="35.5" style="fill: rgb(0, 0, 0); fill-opacity: 0;"/></g><g class="traces" transform="translate(3,61.25)" style="opacity: 1;"><text class="legendtext" text-anchor="start" x="62" y="9.75" style="font-family: serif; font-size: 25px; fill: rgb(0, 0, 0); fill-opacity: 1; white-space: pre;">R.W.  </text><g class="layers" style="opacity: 1;"><g class="legendfill"/><g class="legendlines"/><g class="legendsymbols"><g class="legendpoints"><path class="scatterpts" transform="translate(31,0)" d="M5,0A5,5 0 1,1 0,-5A5,5 0 0,1 5,0Z" style="opacity: 1; stroke-width: 0px; fill: rgb(139, 0, 0); fill-opacity: 1;"/></g></g></g><rect class="legendtoggle" x="0" y="-17.75" width="125" height="35.5" style="fill: rgb(0, 0, 0); fill-opacity: 0;"/></g></g></g><rect class="scrollbar" rx="20" ry="3" width="0" height="0" style="fill: rgb(128, 139, 164); fill-opacity: 1;" x="0" y="0"/></g><g class="g-gtitle"><text class="gtitle" x="512" y="50" text-anchor="middle" dy="0em" style="font-family: serif; font-size: 35px; fill: rgb(0, 0, 0); opacity: 1; font-weight: normal; white-space: pre;">Diffusion / random walk</text></g><g class="g-xtitle" transform="translate(0,-34)"><text class="xtitle" x="534.5" y="796" text-anchor="middle" style="font-family: serif; font-size: 30px; fill: rgb(0, 0, 0); opacity: 1; font-weight: normal; white-space: pre;">x. a.u.</text></g><g class="g-ytitle" transform="translate(-4,0)"><text class="ytitle" transform="rotate(-90,52,396.5)" x="52" y="396.5" text-anchor="middle" style="font-family: serif; font-size: 30px; fill: rgb(0, 0, 0); opacity: 1; font-weight: normal; white-space: pre;">Number of particles</text></g></g></svg>